<svg width="50" height="47" viewBox="0 0 50 47" fill="none" xmlns="http://www.w3.org/2000/svg">
<path d="M3.2435 14.941C3.5655 15.332 3.91433 15.608 4.29 15.769C4.67333 15.93 5.07583 16.0105 5.4975 16.0105C5.9345 16.0105 6.3255 15.9338 6.6705 15.7805C7.02317 15.6195 7.32217 15.3742 7.5675 15.0445C7.81283 14.7072 8.00067 14.2817 8.131 13.768C8.26133 13.2467 8.3265 12.6257 8.3265 11.905C8.3265 10.6093 8.11183 9.674 7.6825 9.099C7.25317 8.51633 6.636 8.225 5.831 8.225C5.28667 8.225 4.81133 8.3515 4.405 8.6045C3.99867 8.84983 3.6115 9.19867 3.2435 9.651V14.941ZM3.2435 7.65C3.71883 7.15167 4.244 6.75683 4.819 6.4655C5.40167 6.1665 6.06483 6.017 6.8085 6.017C7.49083 6.017 8.10417 6.15117 8.6485 6.4195C9.2005 6.68783 9.66817 7.075 10.0515 7.581C10.4425 8.07933 10.7415 8.685 10.9485 9.398C11.1555 10.111 11.259 10.9122 11.259 11.8015C11.259 12.7598 11.1402 13.63 10.9025 14.412C10.6648 15.194 10.3237 15.8648 9.879 16.4245C9.442 16.9765 8.913 17.4058 8.292 17.7125C7.671 18.0192 6.981 18.1725 6.222 18.1725C5.854 18.1725 5.5205 18.1342 5.2215 18.0575C4.9225 17.9885 4.6465 17.8888 4.3935 17.7585C4.1405 17.6282 3.90667 17.471 3.692 17.287C3.485 17.0953 3.28567 16.8845 3.094 16.6545L2.9675 17.448C2.9215 17.6473 2.841 17.7892 2.726 17.8735C2.61867 17.9578 2.46917 18 2.2775 18H0.403V0.910999H3.2435V7.65ZM23.6188 6.201V18H21.8823C21.5066 18 21.269 17.8275 21.1693 17.4825L20.9738 16.5395C20.4908 17.0302 19.958 17.4288 19.3753 17.7355C18.7926 18.0345 18.1065 18.184 17.3168 18.184C16.6728 18.184 16.1016 18.0767 15.6033 17.862C15.1126 17.6397 14.6986 17.3292 14.3613 16.9305C14.024 16.5318 13.7671 16.0603 13.5908 15.516C13.4221 14.964 13.3378 14.3583 13.3378 13.699V6.201H16.1783V13.699C16.1783 14.4197 16.3431 14.9793 16.6728 15.378C17.0101 15.769 17.5123 15.9645 18.1793 15.9645C18.67 15.9645 19.13 15.8572 19.5593 15.6425C19.9886 15.4202 20.395 15.1173 20.7783 14.734V6.201H23.6188ZM17.7998 3.142C17.7998 3.35667 17.7576 3.55983 17.6733 3.7515C17.589 3.9355 17.4701 4.0965 17.3168 4.2345C17.1711 4.3725 16.9986 4.48367 16.7993 4.568C16.6076 4.64467 16.4006 4.683 16.1783 4.683C15.9713 4.683 15.772 4.64467 15.5803 4.568C15.3963 4.48367 15.2315 4.3725 15.0858 4.2345C14.9478 4.0965 14.8366 3.9355 14.7523 3.7515C14.668 3.55983 14.6258 3.35667 14.6258 3.142C14.6258 2.91967 14.668 2.71267 14.7523 2.521C14.8366 2.32167 14.9478 2.14917 15.0858 2.0035C15.2315 1.85783 15.3963 1.74283 15.5803 1.6585C15.772 1.57417 15.9713 1.532 16.1783 1.532C16.4006 1.532 16.6076 1.57417 16.7993 1.6585C16.9986 1.74283 17.1711 1.85783 17.3168 2.0035C17.4701 2.14917 17.589 2.32167 17.6733 2.521C17.7576 2.71267 17.7998 2.91967 17.7998 3.142ZM22.4458 3.142C22.4458 3.35667 22.4036 3.55983 22.3193 3.7515C22.235 3.9355 22.12 4.0965 21.9743 4.2345C21.8363 4.3725 21.6676 4.48367 21.4683 4.568C21.2766 4.64467 21.0696 4.683 20.8473 4.683C20.6326 4.683 20.4295 4.64467 20.2378 4.568C20.0461 4.48367 19.8775 4.3725 19.7318 4.2345C19.5938 4.0965 19.4826 3.9355 19.3983 3.7515C19.314 3.55983 19.2718 3.35667 19.2718 3.142C19.2718 2.91967 19.314 2.71267 19.3983 2.521C19.4826 2.32167 19.5938 2.14917 19.7318 2.0035C19.8775 1.85783 20.0461 1.74283 20.2378 1.6585C20.4295 1.57417 20.6326 1.532 20.8473 1.532C21.0696 1.532 21.2766 1.57417 21.4683 1.6585C21.6676 1.74283 21.8363 1.85783 21.9743 2.0035C22.12 2.14917 22.235 2.32167 22.3193 2.521C22.4036 2.71267 22.4458 2.91967 22.4458 3.142ZM29.0917 7.65C29.3294 7.41233 29.5786 7.19383 29.8392 6.9945C30.1076 6.7875 30.3874 6.615 30.6787 6.477C30.9777 6.33133 31.2959 6.22017 31.6332 6.1435C31.9706 6.05917 32.3386 6.017 32.7372 6.017C33.3812 6.017 33.9524 6.12817 34.4507 6.3505C34.9491 6.56517 35.3631 6.87183 35.6927 7.2705C36.0301 7.6615 36.2831 8.133 36.4517 8.685C36.6281 9.22933 36.7162 9.83117 36.7162 10.4905V18H33.8757V10.4905C33.8757 9.76983 33.7109 9.214 33.3812 8.823C33.0516 8.42433 32.5494 8.225 31.8747 8.225C31.3841 8.225 30.9241 8.33617 30.4947 8.5585C30.0654 8.78083 29.6591 9.08367 29.2757 9.467V18H26.4352V6.201H28.1717C28.5397 6.201 28.7812 6.3735 28.8962 6.7185L29.0917 7.65ZM46.8236 9.214C46.5016 8.823 46.149 8.547 45.7656 8.386C45.39 8.225 44.9836 8.1445 44.5466 8.1445C44.1173 8.1445 43.7301 8.225 43.3851 8.386C43.0401 8.547 42.745 8.79233 42.4996 9.122C42.2543 9.444 42.0665 9.858 41.9361 10.364C41.8058 10.8623 41.7406 11.4527 41.7406 12.135C41.7406 12.825 41.7943 13.4115 41.9016 13.8945C42.0166 14.3698 42.1776 14.7608 42.3846 15.0675C42.5916 15.3665 42.8446 15.585 43.1436 15.723C43.4426 15.8533 43.7761 15.9185 44.1441 15.9185C44.7345 15.9185 45.2366 15.7958 45.6506 15.5505C46.0646 15.3052 46.4556 14.9563 46.8236 14.504V9.214ZM49.6641 0.910999V18H47.9276C47.552 18 47.3143 17.8275 47.2146 17.4825L46.9731 16.344C46.4978 16.8883 45.9496 17.3292 45.3286 17.6665C44.7153 18.0038 43.9985 18.1725 43.1781 18.1725C42.5341 18.1725 41.9438 18.0383 41.4071 17.77C40.8705 17.5017 40.4066 17.1145 40.0156 16.6085C39.6323 16.0948 39.3333 15.4623 39.1186 14.711C38.9116 13.9597 38.8081 13.101 38.8081 12.135C38.8081 11.261 38.927 10.4483 39.1646 9.697C39.4023 8.94567 39.7435 8.294 40.1881 7.742C40.6328 7.19 41.1656 6.76067 41.7866 6.454C42.4076 6.13967 43.1053 5.9825 43.8796 5.9825C44.539 5.9825 45.1025 6.086 45.5701 6.293C46.0378 6.5 46.4556 6.77983 46.8236 7.1325V0.910999H49.6641Z" fill="#1C2C56"/>
<path d="M5.969 38.065C6.60533 38.065 7.165 37.9807 7.648 37.812C8.13867 37.6433 8.54883 37.4095 8.8785 37.1105C9.21583 36.8038 9.46883 36.4397 9.6375 36.018C9.80617 35.5963 9.8905 35.1325 9.8905 34.6265C9.8905 33.5762 9.56467 32.7558 8.913 32.1655C8.269 31.5752 7.28767 31.28 5.969 31.28H3.324V38.065H5.969ZM5.969 29.5205C7.01167 29.5205 7.91633 29.6432 8.683 29.8885C9.45733 30.1262 10.0975 30.4673 10.6035 30.912C11.1095 31.3567 11.4852 31.8933 11.7305 32.522C11.9835 33.1507 12.11 33.8522 12.11 34.6265C12.11 35.3932 11.9758 36.0947 11.7075 36.731C11.4392 37.3673 11.0443 37.9155 10.523 38.3755C10.0093 38.8355 9.36917 39.1958 8.6025 39.4565C7.8435 39.7095 6.96567 39.836 5.969 39.836H3.324V46H1.1045V29.5205H5.969ZM16.4836 29.0605V46H14.4366V29.0605H16.4836ZM29.3826 34.3505V46H28.1636C27.8723 46 27.6883 45.8582 27.6116 45.5745L27.4506 44.321C26.9446 44.8807 26.3773 45.333 25.7486 45.678C25.12 46.0153 24.3993 46.184 23.5866 46.184C22.9503 46.184 22.3868 46.0805 21.8961 45.8735C21.4131 45.6588 21.0068 45.3598 20.6771 44.9765C20.3475 44.5932 20.0983 44.1293 19.9296 43.585C19.7686 43.0407 19.6881 42.4388 19.6881 41.7795V34.3505H21.7351V41.7795C21.7351 42.6612 21.9345 43.3435 22.3331 43.8265C22.7395 44.3095 23.3566 44.551 24.1846 44.551C24.7903 44.551 25.3538 44.4092 25.8751 44.1255C26.4041 43.8342 26.891 43.4355 27.3356 42.9295V34.3505H29.3826ZM39.4133 36.271C39.3213 36.4397 39.1795 36.524 38.9878 36.524C38.8728 36.524 38.7425 36.4818 38.5968 36.3975C38.4512 36.3132 38.271 36.2212 38.0563 36.1215C37.8493 36.0142 37.6002 35.9183 37.3088 35.834C37.0175 35.742 36.6725 35.696 36.2738 35.696C35.9288 35.696 35.6183 35.742 35.3423 35.834C35.0663 35.9183 34.8287 36.0372 34.6293 36.1905C34.4377 36.3438 34.2882 36.524 34.1808 36.731C34.0812 36.9303 34.0313 37.1488 34.0313 37.3865C34.0313 37.6855 34.1157 37.9347 34.2843 38.134C34.4607 38.3333 34.6907 38.5058 34.9743 38.6515C35.258 38.7972 35.58 38.9275 35.9403 39.0425C36.3007 39.1498 36.6687 39.2687 37.0443 39.399C37.4277 39.5217 37.7995 39.6597 38.1598 39.813C38.5202 39.9663 38.8422 40.158 39.1258 40.388C39.4095 40.618 39.6357 40.9017 39.8043 41.239C39.9807 41.5687 40.0688 41.9673 40.0688 42.435C40.0688 42.9717 39.973 43.47 39.7813 43.93C39.5897 44.3823 39.306 44.7772 38.9303 45.1145C38.5547 45.4442 38.0947 45.7048 37.5503 45.8965C37.006 46.0882 36.3773 46.184 35.6643 46.184C34.8517 46.184 34.1157 46.0537 33.4563 45.793C32.797 45.5247 32.2373 45.1835 31.7773 44.7695L32.2603 43.9875C32.3217 43.8878 32.3945 43.8112 32.4788 43.7575C32.5632 43.7038 32.6705 43.677 32.8008 43.677C32.9388 43.677 33.0845 43.7307 33.2378 43.838C33.3912 43.9453 33.5752 44.0642 33.7898 44.1945C34.0122 44.3248 34.2805 44.4437 34.5948 44.551C34.9092 44.6583 35.3002 44.712 35.7678 44.712C36.1665 44.712 36.5153 44.6622 36.8143 44.5625C37.1133 44.4552 37.3625 44.3133 37.5618 44.137C37.7612 43.9607 37.9068 43.7575 37.9988 43.5275C38.0985 43.2975 38.1483 43.0522 38.1483 42.7915C38.1483 42.4695 38.0602 42.205 37.8838 41.998C37.7152 41.7833 37.489 41.6032 37.2053 41.4575C36.9217 41.3042 36.5958 41.1738 36.2278 41.0665C35.8675 40.9515 35.4957 40.8327 35.1123 40.71C34.7367 40.5873 34.3648 40.4493 33.9968 40.296C33.6365 40.135 33.3145 39.9357 33.0308 39.698C32.7472 39.4603 32.5172 39.169 32.3408 38.824C32.1722 38.4713 32.0878 38.0458 32.0878 37.5475C32.0878 37.1028 32.1798 36.6773 32.3638 36.271C32.5478 35.857 32.8162 35.4967 33.1688 35.19C33.5215 34.8757 33.9547 34.6265 34.4683 34.4425C34.982 34.2585 35.5685 34.1665 36.2278 34.1665C36.9945 34.1665 37.6807 34.2892 38.2863 34.5345C38.8997 34.7722 39.4287 35.1018 39.8733 35.5235L39.4133 36.271Z" fill="#A4ABBB"/>
</svg>
