<svg width="50" height="47" viewBox="0 0 50 47" fill="none" xmlns="http://www.w3.org/2000/svg">
<path d="M3.2435 14.941C3.5655 15.332 3.91433 15.608 4.29 15.769C4.67333 15.93 5.07583 16.0105 5.4975 16.0105C5.9345 16.0105 6.3255 15.9338 6.6705 15.7805C7.02317 15.6195 7.32217 15.3742 7.5675 15.0445C7.81283 14.7072 8.00067 14.2817 8.131 13.768C8.26133 13.2467 8.3265 12.6257 8.3265 11.905C8.3265 10.6093 8.11183 9.674 7.6825 9.099C7.25317 8.51633 6.636 8.225 5.831 8.225C5.28667 8.225 4.81133 8.3515 4.405 8.6045C3.99867 8.84983 3.6115 9.19867 3.2435 9.651V14.941ZM3.2435 7.65C3.71883 7.15167 4.244 6.75683 4.819 6.4655C5.40167 6.1665 6.06483 6.017 6.8085 6.017C7.49083 6.017 8.10417 6.15117 8.6485 6.4195C9.2005 6.68783 9.66817 7.075 10.0515 7.581C10.4425 8.07933 10.7415 8.685 10.9485 9.398C11.1555 10.111 11.259 10.9122 11.259 11.8015C11.259 12.7598 11.1402 13.63 10.9025 14.412C10.6648 15.194 10.3237 15.8648 9.879 16.4245C9.442 16.9765 8.913 17.4058 8.292 17.7125C7.671 18.0192 6.981 18.1725 6.222 18.1725C5.854 18.1725 5.5205 18.1342 5.2215 18.0575C4.9225 17.9885 4.6465 17.8888 4.3935 17.7585C4.1405 17.6282 3.90667 17.471 3.692 17.287C3.485 17.0953 3.28567 16.8845 3.094 16.6545L2.9675 17.448C2.9215 17.6473 2.841 17.7892 2.726 17.8735C2.61867 17.9578 2.46917 18 2.2775 18H0.403V0.910999H3.2435V7.65ZM23.6188 6.201V18H21.8823C21.5066 18 21.269 17.8275 21.1693 17.4825L20.9738 16.5395C20.4908 17.0302 19.958 17.4288 19.3753 17.7355C18.7926 18.0345 18.1065 18.184 17.3168 18.184C16.6728 18.184 16.1016 18.0767 15.6033 17.862C15.1126 17.6397 14.6986 17.3292 14.3613 16.9305C14.024 16.5318 13.7671 16.0603 13.5908 15.516C13.4221 14.964 13.3378 14.3583 13.3378 13.699V6.201H16.1783V13.699C16.1783 14.4197 16.3431 14.9793 16.6728 15.378C17.0101 15.769 17.5123 15.9645 18.1793 15.9645C18.67 15.9645 19.13 15.8572 19.5593 15.6425C19.9886 15.4202 20.395 15.1173 20.7783 14.734V6.201H23.6188ZM17.7998 3.142C17.7998 3.35667 17.7576 3.55983 17.6733 3.7515C17.589 3.9355 17.4701 4.0965 17.3168 4.2345C17.1711 4.3725 16.9986 4.48367 16.7993 4.568C16.6076 4.64467 16.4006 4.683 16.1783 4.683C15.9713 4.683 15.772 4.64467 15.5803 4.568C15.3963 4.48367 15.2315 4.3725 15.0858 4.2345C14.9478 4.0965 14.8366 3.9355 14.7523 3.7515C14.668 3.55983 14.6258 3.35667 14.6258 3.142C14.6258 2.91967 14.668 2.71267 14.7523 2.521C14.8366 2.32167 14.9478 2.14917 15.0858 2.0035C15.2315 1.85783 15.3963 1.74283 15.5803 1.6585C15.772 1.57417 15.9713 1.532 16.1783 1.532C16.4006 1.532 16.6076 1.57417 16.7993 1.6585C16.9986 1.74283 17.1711 1.85783 17.3168 2.0035C17.4701 2.14917 17.589 2.32167 17.6733 2.521C17.7576 2.71267 17.7998 2.91967 17.7998 3.142ZM22.4458 3.142C22.4458 3.35667 22.4036 3.55983 22.3193 3.7515C22.235 3.9355 22.12 4.0965 21.9743 4.2345C21.8363 4.3725 21.6676 4.48367 21.4683 4.568C21.2766 4.64467 21.0696 4.683 20.8473 4.683C20.6326 4.683 20.4295 4.64467 20.2378 4.568C20.0461 4.48367 19.8775 4.3725 19.7318 4.2345C19.5938 4.0965 19.4826 3.9355 19.3983 3.7515C19.314 3.55983 19.2718 3.35667 19.2718 3.142C19.2718 2.91967 19.314 2.71267 19.3983 2.521C19.4826 2.32167 19.5938 2.14917 19.7318 2.0035C19.8775 1.85783 20.0461 1.74283 20.2378 1.6585C20.4295 1.57417 20.6326 1.532 20.8473 1.532C21.0696 1.532 21.2766 1.57417 21.4683 1.6585C21.6676 1.74283 21.8363 1.85783 21.9743 2.0035C22.12 2.14917 22.235 2.32167 22.3193 2.521C22.4036 2.71267 22.4458 2.91967 22.4458 3.142ZM29.0917 7.65C29.3294 7.41233 29.5786 7.19383 29.8392 6.9945C30.1076 6.7875 30.3874 6.615 30.6787 6.477C30.9777 6.33133 31.2959 6.22017 31.6332 6.1435C31.9706 6.05917 32.3386 6.017 32.7372 6.017C33.3812 6.017 33.9524 6.12817 34.4507 6.3505C34.9491 6.56517 35.3631 6.87183 35.6927 7.2705C36.0301 7.6615 36.2831 8.133 36.4517 8.685C36.6281 9.22933 36.7162 9.83117 36.7162 10.4905V18H33.8757V10.4905C33.8757 9.76983 33.7109 9.214 33.3812 8.823C33.0516 8.42433 32.5494 8.225 31.8747 8.225C31.3841 8.225 30.9241 8.33617 30.4947 8.5585C30.0654 8.78083 29.6591 9.08367 29.2757 9.467V18H26.4352V6.201H28.1717C28.5397 6.201 28.7812 6.3735 28.8962 6.7185L29.0917 7.65ZM46.8236 9.214C46.5016 8.823 46.149 8.547 45.7656 8.386C45.39 8.225 44.9836 8.1445 44.5466 8.1445C44.1173 8.1445 43.7301 8.225 43.3851 8.386C43.0401 8.547 42.745 8.79233 42.4996 9.122C42.2543 9.444 42.0665 9.858 41.9361 10.364C41.8058 10.8623 41.7406 11.4527 41.7406 12.135C41.7406 12.825 41.7943 13.4115 41.9016 13.8945C42.0166 14.3698 42.1776 14.7608 42.3846 15.0675C42.5916 15.3665 42.8446 15.585 43.1436 15.723C43.4426 15.8533 43.7761 15.9185 44.1441 15.9185C44.7345 15.9185 45.2366 15.7958 45.6506 15.5505C46.0646 15.3052 46.4556 14.9563 46.8236 14.504V9.214ZM49.6641 0.910999V18H47.9276C47.552 18 47.3143 17.8275 47.2146 17.4825L46.9731 16.344C46.4978 16.8883 45.9496 17.3292 45.3286 17.6665C44.7153 18.0038 43.9985 18.1725 43.1781 18.1725C42.5341 18.1725 41.9438 18.0383 41.4071 17.77C40.8705 17.5017 40.4066 17.1145 40.0156 16.6085C39.6323 16.0948 39.3333 15.4623 39.1186 14.711C38.9116 13.9597 38.8081 13.101 38.8081 12.135C38.8081 11.261 38.927 10.4483 39.1646 9.697C39.4023 8.94567 39.7435 8.294 40.1881 7.742C40.6328 7.19 41.1656 6.76067 41.7866 6.454C42.4076 6.13967 43.1053 5.9825 43.8796 5.9825C44.539 5.9825 45.1025 6.086 45.5701 6.293C46.0378 6.5 46.4556 6.77983 46.8236 7.1325V0.910999H49.6641Z" fill="#1C2C56"/>
<path d="M18.251 29.5205V46H16.296V33.8905C16.296 33.7295 16.2998 33.557 16.3075 33.373C16.3228 33.189 16.3382 33.0012 16.3535 32.8095L10.6955 43.1135C10.5192 43.4585 10.2508 43.631 9.8905 43.631H9.5685C9.20817 43.631 8.93983 43.4585 8.7635 43.1135L2.9905 32.7635C3.0365 33.1698 3.0595 33.5455 3.0595 33.8905V46H1.1045V29.5205H2.749C2.94833 29.5205 3.10167 29.5397 3.209 29.578C3.31633 29.6163 3.41983 29.7237 3.5195 29.9L9.212 40.043C9.304 40.227 9.39217 40.4187 9.4765 40.618C9.5685 40.8173 9.65283 41.0205 9.7295 41.2275C9.80617 41.0205 9.88667 40.8173 9.971 40.618C10.0553 40.411 10.1473 40.2155 10.247 40.0315L15.836 29.9C15.928 29.7237 16.0277 29.6163 16.135 29.578C16.25 29.5397 16.4072 29.5205 16.6065 29.5205H18.251ZM27.9584 40.756C27.0154 40.7867 26.2104 40.8633 25.5434 40.986C24.8841 41.101 24.3436 41.2543 23.9219 41.446C23.5079 41.6377 23.2051 41.8638 23.0134 42.1245C22.8294 42.3852 22.7374 42.6765 22.7374 42.9985C22.7374 43.3052 22.7873 43.5697 22.8869 43.792C22.9866 44.0143 23.1208 44.1983 23.2894 44.344C23.4658 44.482 23.6689 44.5855 23.8989 44.6545C24.1366 44.7158 24.3896 44.7465 24.6579 44.7465C25.0183 44.7465 25.3479 44.712 25.6469 44.643C25.9459 44.5663 26.2258 44.459 26.4864 44.321C26.7548 44.183 27.0078 44.0182 27.2454 43.8265C27.4908 43.6348 27.7284 43.4163 27.9584 43.171V40.756ZM21.3459 35.995C21.9899 35.374 22.6838 34.9102 23.4274 34.6035C24.1711 34.2968 24.9953 34.1435 25.8999 34.1435C26.5516 34.1435 27.1304 34.2508 27.6364 34.4655C28.1424 34.6802 28.5679 34.9792 28.9129 35.3625C29.2579 35.7458 29.5186 36.2097 29.6949 36.754C29.8713 37.2983 29.9594 37.8963 29.9594 38.548V46H29.0509C28.8516 46 28.6983 45.9693 28.5909 45.908C28.4836 45.839 28.3993 45.7087 28.3379 45.517L28.1079 44.413C27.8013 44.6967 27.5023 44.9497 27.2109 45.172C26.9196 45.3867 26.6129 45.5707 26.2909 45.724C25.9689 45.8697 25.6239 45.9808 25.2559 46.0575C24.8956 46.1418 24.4931 46.184 24.0484 46.184C23.5961 46.184 23.1706 46.1227 22.7719 46C22.3733 45.8697 22.0244 45.678 21.7254 45.425C21.4341 45.172 21.2003 44.8538 21.0239 44.4705C20.8553 44.0795 20.7709 43.6195 20.7709 43.0905C20.7709 42.6305 20.8974 42.1897 21.1504 41.768C21.4034 41.3387 21.8136 40.9592 22.3809 40.6295C22.9483 40.2998 23.6881 40.0315 24.6004 39.8245C25.5128 39.6098 26.6321 39.4872 27.9584 39.4565V38.548C27.9584 37.6433 27.7629 36.961 27.3719 36.501C26.9809 36.0333 26.4098 35.7995 25.6584 35.7995C25.1524 35.7995 24.7269 35.8647 24.3819 35.995C24.0446 36.1177 23.7494 36.2595 23.4964 36.4205C23.2511 36.5738 23.0364 36.7157 22.8524 36.846C22.6761 36.9687 22.4998 37.03 22.3234 37.03C22.1854 37.03 22.0666 36.9955 21.9669 36.9265C21.8673 36.8498 21.7829 36.7578 21.7139 36.6505L21.3459 35.995ZM42.6456 46H40.6791C40.5104 46 40.3762 45.9578 40.2766 45.8735C40.1846 45.7815 40.1079 45.6818 40.0466 45.5745L37.1141 41.009C37.0834 41.1163 37.0489 41.2237 37.0106 41.331C36.9799 41.4307 36.9339 41.5227 36.8726 41.607L34.1586 45.5745C34.0819 45.6818 33.9976 45.7815 33.9056 45.8735C33.8212 45.9578 33.7024 46 33.5491 46H31.7206L35.8031 40.02L31.8816 34.3505H33.8481C34.0167 34.3505 34.1394 34.3773 34.2161 34.431C34.2927 34.4847 34.3617 34.5613 34.4231 34.661L37.2866 39.031C37.3479 38.8087 37.4437 38.594 37.5741 38.387L40.0811 34.707C40.1501 34.5997 40.2229 34.5153 40.2996 34.454C40.3839 34.385 40.4836 34.3505 40.5986 34.3505H42.4846L38.5631 39.9165L42.6456 46Z" fill="#A4ABBB"/>
</svg>
