<svg width="96" height="47" viewBox="0 0 96 47" fill="none" xmlns="http://www.w3.org/2000/svg">
<path d="M3.2435 14.941C3.5655 15.332 3.91433 15.608 4.29 15.769C4.67333 15.93 5.07583 16.0105 5.4975 16.0105C5.9345 16.0105 6.3255 15.9338 6.6705 15.7805C7.02317 15.6195 7.32217 15.3742 7.5675 15.0445C7.81283 14.7072 8.00067 14.2817 8.131 13.768C8.26133 13.2467 8.3265 12.6257 8.3265 11.905C8.3265 10.6093 8.11183 9.674 7.6825 9.099C7.25317 8.51633 6.636 8.225 5.831 8.225C5.28667 8.225 4.81133 8.3515 4.405 8.6045C3.99867 8.84983 3.6115 9.19867 3.2435 9.651V14.941ZM3.2435 7.65C3.71883 7.15167 4.244 6.75683 4.819 6.4655C5.40167 6.1665 6.06483 6.017 6.8085 6.017C7.49083 6.017 8.10417 6.15117 8.6485 6.4195C9.2005 6.68783 9.66817 7.075 10.0515 7.581C10.4425 8.07933 10.7415 8.685 10.9485 9.398C11.1555 10.111 11.259 10.9122 11.259 11.8015C11.259 12.7598 11.1402 13.63 10.9025 14.412C10.6648 15.194 10.3237 15.8648 9.879 16.4245C9.442 16.9765 8.913 17.4058 8.292 17.7125C7.671 18.0192 6.981 18.1725 6.222 18.1725C5.854 18.1725 5.5205 18.1342 5.2215 18.0575C4.9225 17.9885 4.6465 17.8888 4.3935 17.7585C4.1405 17.6282 3.90667 17.471 3.692 17.287C3.485 17.0953 3.28567 16.8845 3.094 16.6545L2.9675 17.448C2.9215 17.6473 2.841 17.7892 2.726 17.8735C2.61867 17.9578 2.46917 18 2.2775 18H0.403V0.910999H3.2435V7.65ZM23.6188 6.201V18H21.8823C21.5066 18 21.269 17.8275 21.1693 17.4825L20.9738 16.5395C20.4908 17.0302 19.958 17.4288 19.3753 17.7355C18.7926 18.0345 18.1065 18.184 17.3168 18.184C16.6728 18.184 16.1016 18.0767 15.6033 17.862C15.1126 17.6397 14.6986 17.3292 14.3613 16.9305C14.024 16.5318 13.7671 16.0603 13.5908 15.516C13.4221 14.964 13.3378 14.3583 13.3378 13.699V6.201H16.1783V13.699C16.1783 14.4197 16.3431 14.9793 16.6728 15.378C17.0101 15.769 17.5123 15.9645 18.1793 15.9645C18.67 15.9645 19.13 15.8572 19.5593 15.6425C19.9886 15.4202 20.395 15.1173 20.7783 14.734V6.201H23.6188ZM17.7998 3.142C17.7998 3.35667 17.7576 3.55983 17.6733 3.7515C17.589 3.9355 17.4701 4.0965 17.3168 4.2345C17.1711 4.3725 16.9986 4.48367 16.7993 4.568C16.6076 4.64467 16.4006 4.683 16.1783 4.683C15.9713 4.683 15.772 4.64467 15.5803 4.568C15.3963 4.48367 15.2315 4.3725 15.0858 4.2345C14.9478 4.0965 14.8366 3.9355 14.7523 3.7515C14.668 3.55983 14.6258 3.35667 14.6258 3.142C14.6258 2.91967 14.668 2.71267 14.7523 2.521C14.8366 2.32167 14.9478 2.14917 15.0858 2.0035C15.2315 1.85783 15.3963 1.74283 15.5803 1.6585C15.772 1.57417 15.9713 1.532 16.1783 1.532C16.4006 1.532 16.6076 1.57417 16.7993 1.6585C16.9986 1.74283 17.1711 1.85783 17.3168 2.0035C17.4701 2.14917 17.589 2.32167 17.6733 2.521C17.7576 2.71267 17.7998 2.91967 17.7998 3.142ZM22.4458 3.142C22.4458 3.35667 22.4036 3.55983 22.3193 3.7515C22.235 3.9355 22.12 4.0965 21.9743 4.2345C21.8363 4.3725 21.6676 4.48367 21.4683 4.568C21.2766 4.64467 21.0696 4.683 20.8473 4.683C20.6326 4.683 20.4295 4.64467 20.2378 4.568C20.0461 4.48367 19.8775 4.3725 19.7318 4.2345C19.5938 4.0965 19.4826 3.9355 19.3983 3.7515C19.314 3.55983 19.2718 3.35667 19.2718 3.142C19.2718 2.91967 19.314 2.71267 19.3983 2.521C19.4826 2.32167 19.5938 2.14917 19.7318 2.0035C19.8775 1.85783 20.0461 1.74283 20.2378 1.6585C20.4295 1.57417 20.6326 1.532 20.8473 1.532C21.0696 1.532 21.2766 1.57417 21.4683 1.6585C21.6676 1.74283 21.8363 1.85783 21.9743 2.0035C22.12 2.14917 22.235 2.32167 22.3193 2.521C22.4036 2.71267 22.4458 2.91967 22.4458 3.142ZM29.0917 7.65C29.3294 7.41233 29.5786 7.19383 29.8392 6.9945C30.1076 6.7875 30.3874 6.615 30.6787 6.477C30.9777 6.33133 31.2959 6.22017 31.6332 6.1435C31.9706 6.05917 32.3386 6.017 32.7372 6.017C33.3812 6.017 33.9524 6.12817 34.4507 6.3505C34.9491 6.56517 35.3631 6.87183 35.6927 7.2705C36.0301 7.6615 36.2831 8.133 36.4517 8.685C36.6281 9.22933 36.7162 9.83117 36.7162 10.4905V18H33.8757V10.4905C33.8757 9.76983 33.7109 9.214 33.3812 8.823C33.0516 8.42433 32.5494 8.225 31.8747 8.225C31.3841 8.225 30.9241 8.33617 30.4947 8.5585C30.0654 8.78083 29.6591 9.08367 29.2757 9.467V18H26.4352V6.201H28.1717C28.5397 6.201 28.7812 6.3735 28.8962 6.7185L29.0917 7.65ZM46.8236 9.214C46.5016 8.823 46.149 8.547 45.7656 8.386C45.39 8.225 44.9836 8.1445 44.5466 8.1445C44.1173 8.1445 43.7301 8.225 43.3851 8.386C43.0401 8.547 42.745 8.79233 42.4996 9.122C42.2543 9.444 42.0665 9.858 41.9361 10.364C41.8058 10.8623 41.7406 11.4527 41.7406 12.135C41.7406 12.825 41.7943 13.4115 41.9016 13.8945C42.0166 14.3698 42.1776 14.7608 42.3846 15.0675C42.5916 15.3665 42.8446 15.585 43.1436 15.723C43.4426 15.8533 43.7761 15.9185 44.1441 15.9185C44.7345 15.9185 45.2366 15.7958 45.6506 15.5505C46.0646 15.3052 46.4556 14.9563 46.8236 14.504V9.214ZM49.6641 0.910999V18H47.9276C47.552 18 47.3143 17.8275 47.2146 17.4825L46.9731 16.344C46.4978 16.8883 45.9496 17.3292 45.3286 17.6665C44.7153 18.0038 43.9985 18.1725 43.1781 18.1725C42.5341 18.1725 41.9438 18.0383 41.4071 17.77C40.8705 17.5017 40.4066 17.1145 40.0156 16.6085C39.6323 16.0948 39.3333 15.4623 39.1186 14.711C38.9116 13.9597 38.8081 13.101 38.8081 12.135C38.8081 11.261 38.927 10.4483 39.1646 9.697C39.4023 8.94567 39.7435 8.294 40.1881 7.742C40.6328 7.19 41.1656 6.76067 41.7866 6.454C42.4076 6.13967 43.1053 5.9825 43.8796 5.9825C44.539 5.9825 45.1025 6.086 45.5701 6.293C46.0378 6.5 46.4556 6.77983 46.8236 7.1325V0.910999H49.6641Z" fill="#1C2C56"/>
<path d="M7.464 44.229C8.14633 44.229 8.75583 44.114 9.2925 43.884C9.82917 43.654 10.2815 43.332 10.6495 42.918C11.0252 42.504 11.3088 42.0095 11.5005 41.4345C11.6998 40.8595 11.7995 40.227 11.7995 39.537V29.5205H14.019V39.537C14.019 40.4877 13.8657 41.3693 13.559 42.182C13.26 42.9947 12.8268 43.7 12.2595 44.298C11.6998 44.8883 11.0137 45.3522 10.201 45.6895C9.38833 46.0268 8.476 46.1955 7.464 46.1955C6.452 46.1955 5.53967 46.0268 4.727 45.6895C3.91433 45.3522 3.22433 44.8883 2.657 44.298C2.08967 43.7 1.65267 42.9947 1.346 42.182C1.047 41.3693 0.8975 40.4877 0.8975 39.537V29.5205H3.117V39.5255C3.117 40.2155 3.21283 40.848 3.4045 41.423C3.60383 41.998 3.8875 42.4925 4.2555 42.9065C4.63117 43.3205 5.08733 43.6463 5.624 43.884C6.16833 44.114 6.78167 44.229 7.464 44.229ZM19.1297 36.041C19.3827 35.7573 19.651 35.5005 19.9347 35.2705C20.2183 35.0405 20.5173 34.845 20.8317 34.684C21.1537 34.5153 21.491 34.3888 21.8437 34.3045C22.204 34.2125 22.5912 34.1665 23.0052 34.1665C23.6415 34.1665 24.2012 34.2738 24.6842 34.4885C25.1748 34.6955 25.5812 34.9945 25.9032 35.3855C26.2328 35.7688 26.482 36.2327 26.6507 36.777C26.8193 37.3213 26.9037 37.9232 26.9037 38.5825V46H24.8452V38.5825C24.8452 37.7008 24.642 37.0185 24.2357 36.5355C23.837 36.0448 23.2275 35.7995 22.4072 35.7995C21.8015 35.7995 21.2342 35.9452 20.7052 36.2365C20.1838 36.5278 19.7008 36.9227 19.2562 37.421V46H17.1977V34.3505H18.4282C18.7195 34.3505 18.8997 34.4923 18.9687 34.776L19.1297 36.041ZM32.1389 29.0605V46H30.0919V29.0605H32.1389ZM37.6204 34.3505V46H35.5734V34.3505H37.6204ZM38.0574 30.6935C38.0574 30.8928 38.0152 31.0807 37.9309 31.257C37.8542 31.4257 37.7469 31.579 37.6089 31.717C37.4786 31.8473 37.3214 31.9508 37.1374 32.0275C36.9611 32.1042 36.7732 32.1425 36.5739 32.1425C36.3746 32.1425 36.1867 32.1042 36.0104 32.0275C35.8417 31.9508 35.6922 31.8473 35.5619 31.717C35.4316 31.579 35.3281 31.4257 35.2514 31.257C35.1747 31.0807 35.1364 30.8928 35.1364 30.6935C35.1364 30.4942 35.1747 30.3063 35.2514 30.13C35.3281 29.946 35.4316 29.7888 35.5619 29.6585C35.6922 29.5205 35.8417 29.4132 36.0104 29.3365C36.1867 29.2598 36.3746 29.2215 36.5739 29.2215C36.7732 29.2215 36.9611 29.2598 37.1374 29.3365C37.3214 29.4132 37.4786 29.5205 37.6089 29.6585C37.7469 29.7888 37.8542 29.946 37.9309 30.13C38.0152 30.3063 38.0574 30.4942 38.0574 30.6935ZM40.9838 46V34.3505H42.2143C42.5056 34.3505 42.6858 34.4923 42.7548 34.776L42.9043 35.972C43.3336 35.443 43.8166 35.0098 44.3533 34.6725C44.89 34.3352 45.511 34.1665 46.2163 34.1665C46.9983 34.1665 47.6308 34.385 48.1138 34.822C48.6045 35.259 48.9571 35.8493 49.1718 36.593C49.3405 36.1713 49.5551 35.8072 49.8158 35.5005C50.0841 35.1938 50.3831 34.9408 50.7128 34.7415C51.0425 34.5422 51.3913 34.3965 51.7593 34.3045C52.135 34.2125 52.5145 34.1665 52.8978 34.1665C53.5111 34.1665 54.0555 34.2662 54.5308 34.4655C55.0138 34.6572 55.4201 34.9408 55.7498 35.3165C56.0871 35.6922 56.344 36.156 56.5203 36.708C56.6966 37.2523 56.7848 37.8772 56.7848 38.5825V46H54.7263V38.5825C54.7263 37.6702 54.527 36.9802 54.1283 36.5125C53.7296 36.0372 53.1546 35.7995 52.4033 35.7995C52.066 35.7995 51.744 35.8608 51.4373 35.9835C51.1383 36.0985 50.8738 36.271 50.6438 36.501C50.4138 36.731 50.2298 37.0223 50.0918 37.375C49.9615 37.72 49.8963 38.1225 49.8963 38.5825V46H47.8378V38.5825C47.8378 37.6472 47.65 36.9495 47.2743 36.4895C46.8986 36.0295 46.3505 35.7995 45.6298 35.7995C45.1238 35.7995 44.6561 35.9375 44.2268 36.2135C43.7975 36.4818 43.4026 36.8498 43.0423 37.3175V46H40.9838ZM62.0579 34.3505V46H60.0109V34.3505H62.0579ZM62.4949 30.6935C62.4949 30.8928 62.4527 31.0807 62.3684 31.257C62.2917 31.4257 62.1844 31.579 62.0464 31.717C61.9161 31.8473 61.7589 31.9508 61.5749 32.0275C61.3986 32.1042 61.2107 32.1425 61.0114 32.1425C60.8121 32.1425 60.6242 32.1042 60.4479 32.0275C60.2792 31.9508 60.1297 31.8473 59.9994 31.717C59.8691 31.579 59.7656 31.4257 59.6889 31.257C59.6122 31.0807 59.5739 30.8928 59.5739 30.6935C59.5739 30.4942 59.6122 30.3063 59.6889 30.13C59.7656 29.946 59.8691 29.7888 59.9994 29.6585C60.1297 29.5205 60.2792 29.4132 60.4479 29.3365C60.6242 29.2598 60.8121 29.2215 61.0114 29.2215C61.2107 29.2215 61.3986 29.2598 61.5749 29.3365C61.7589 29.4132 61.9161 29.5205 62.0464 29.6585C62.1844 29.7888 62.2917 29.946 62.3684 30.13C62.4527 30.3063 62.4949 30.4942 62.4949 30.6935ZM68.9978 46.184C68.0778 46.184 67.3686 45.9272 66.8703 45.4135C66.3796 44.8998 66.1343 44.16 66.1343 43.194V36.064H64.7313C64.6086 36.064 64.5051 36.0295 64.4208 35.9605C64.3365 35.8838 64.2943 35.7688 64.2943 35.6155V34.799L66.2033 34.5575L66.6748 30.958C66.6978 30.843 66.7476 30.751 66.8243 30.682C66.9086 30.6053 67.016 30.567 67.1463 30.567H68.1813V34.5805H71.5508V36.064H68.1813V43.056C68.1813 43.5467 68.3001 43.9108 68.5378 44.1485C68.7755 44.3862 69.0821 44.505 69.4578 44.505C69.6725 44.505 69.8565 44.4782 70.0098 44.4245C70.1708 44.3632 70.3088 44.298 70.4238 44.229C70.5388 44.16 70.6346 44.0987 70.7113 44.045C70.7956 43.9837 70.8685 43.953 70.9298 43.953C71.0371 43.953 71.133 44.0182 71.2173 44.1485L71.8153 45.126C71.4626 45.4557 71.0371 45.7163 70.5388 45.908C70.0405 46.092 69.5268 46.184 68.9978 46.184ZM81.3941 38.9045C81.3941 38.4292 81.3251 37.996 81.1871 37.605C81.0568 37.2063 80.8613 36.8652 80.6006 36.5815C80.3476 36.2902 80.0371 36.0678 79.6691 35.9145C79.3011 35.7535 78.8833 35.673 78.4156 35.673C77.4343 35.673 76.6561 35.9605 76.0811 36.5355C75.5138 37.1028 75.1611 37.8925 75.0231 38.9045H81.3941ZM83.0501 44.367C82.7971 44.6737 82.4943 44.942 82.1416 45.172C81.7889 45.3943 81.4094 45.5783 81.0031 45.724C80.6044 45.8697 80.1904 45.977 79.7611 46.046C79.3318 46.1227 78.9063 46.161 78.4846 46.161C77.6796 46.161 76.9359 46.0268 76.2536 45.7585C75.5789 45.4825 74.9924 45.0838 74.4941 44.5625C74.0034 44.0335 73.6201 43.3818 73.3441 42.6075C73.0681 41.8332 72.9301 40.9438 72.9301 39.9395C72.9301 39.1268 73.0528 38.3678 73.2981 37.6625C73.5511 36.9572 73.9114 36.3477 74.3791 35.834C74.8468 35.3127 75.4179 34.9063 76.0926 34.615C76.7673 34.316 77.5263 34.1665 78.3696 34.1665C79.0673 34.1665 79.7113 34.2853 80.3016 34.523C80.8996 34.753 81.4133 35.0903 81.8426 35.535C82.2796 35.972 82.6208 36.5163 82.8661 37.168C83.1114 37.812 83.2341 38.548 83.2341 39.376C83.2341 39.698 83.1996 39.9127 83.1306 40.02C83.0616 40.1273 82.9313 40.181 82.7396 40.181H74.9541C74.9771 40.917 75.0768 41.5572 75.2531 42.1015C75.4371 42.6458 75.6901 43.102 76.0121 43.47C76.3341 43.8303 76.7174 44.1025 77.1621 44.2865C77.6068 44.4628 78.1051 44.551 78.6571 44.551C79.1708 44.551 79.6116 44.4935 79.9796 44.3785C80.3553 44.2558 80.6773 44.1255 80.9456 43.9875C81.2139 43.8495 81.4363 43.723 81.6126 43.608C81.7966 43.4853 81.9538 43.424 82.0841 43.424C82.2528 43.424 82.3831 43.4892 82.4751 43.6195L83.0501 44.367ZM93.3385 37.122C92.9551 36.6083 92.5411 36.2518 92.0965 36.0525C91.6518 35.8455 91.1535 35.742 90.6015 35.742C89.5205 35.742 88.6886 36.1292 88.106 36.9035C87.5233 37.6778 87.232 38.7818 87.232 40.2155C87.232 40.9745 87.2971 41.6262 87.4275 42.1705C87.5578 42.7072 87.7495 43.1518 88.0025 43.5045C88.2555 43.8495 88.566 44.1025 88.934 44.2635C89.302 44.4245 89.7198 44.505 90.1875 44.505C90.8621 44.505 91.4486 44.3517 91.947 44.045C92.453 43.7383 92.9168 43.3052 93.3385 42.7455V37.122ZM95.3855 29.0605V46H94.1665C93.8751 46 93.6911 45.8582 93.6145 45.5745L93.4305 44.16C92.9321 44.758 92.3648 45.241 91.7285 45.609C91.0921 45.977 90.3561 46.161 89.5205 46.161C88.8535 46.161 88.2478 46.0345 87.7035 45.7815C87.1591 45.5208 86.6953 45.1413 86.312 44.643C85.9286 44.1447 85.6335 43.5237 85.4265 42.78C85.2195 42.0363 85.116 41.1815 85.116 40.2155C85.116 39.3568 85.231 38.5595 85.461 37.8235C85.691 37.0798 86.0206 36.4358 86.45 35.8915C86.8793 35.3472 87.4045 34.9217 88.0255 34.615C88.6541 34.3007 89.3595 34.1435 90.1415 34.1435C90.8545 34.1435 91.464 34.2662 91.97 34.5115C92.4836 34.7492 92.9398 35.0827 93.3385 35.512V29.0605H95.3855Z" fill="#A4ABBB"/>
</svg>
