<svg width="88" height="47" viewBox="0 0 88 47" fill="none" xmlns="http://www.w3.org/2000/svg">
<path d="M4.2435 14.941C4.5655 15.332 4.91433 15.608 5.29 15.769C5.67333 15.93 6.07583 16.0105 6.4975 16.0105C6.9345 16.0105 7.3255 15.9338 7.6705 15.7805C8.02317 15.6195 8.32217 15.3742 8.5675 15.0445C8.81283 14.7072 9.00067 14.2817 9.131 13.768C9.26133 13.2467 9.3265 12.6257 9.3265 11.905C9.3265 10.6093 9.11183 9.674 8.6825 9.099C8.25317 8.51633 7.636 8.225 6.831 8.225C6.28667 8.225 5.81133 8.3515 5.405 8.6045C4.99867 8.84983 4.6115 9.19867 4.2435 9.651V14.941ZM4.2435 7.65C4.71883 7.15167 5.244 6.75683 5.819 6.4655C6.40167 6.1665 7.06483 6.017 7.8085 6.017C8.49083 6.017 9.10417 6.15117 9.6485 6.4195C10.2005 6.68783 10.6682 7.075 11.0515 7.581C11.4425 8.07933 11.7415 8.685 11.9485 9.398C12.1555 10.111 12.259 10.9122 12.259 11.8015C12.259 12.7598 12.1402 13.63 11.9025 14.412C11.6648 15.194 11.3237 15.8648 10.879 16.4245C10.442 16.9765 9.913 17.4058 9.292 17.7125C8.671 18.0192 7.981 18.1725 7.222 18.1725C6.854 18.1725 6.5205 18.1342 6.2215 18.0575C5.9225 17.9885 5.6465 17.8888 5.3935 17.7585C5.1405 17.6282 4.90667 17.471 4.692 17.287C4.485 17.0953 4.28567 16.8845 4.094 16.6545L3.9675 17.448C3.9215 17.6473 3.841 17.7892 3.726 17.8735C3.61867 17.9578 3.46917 18 3.2775 18H1.403V0.910999H4.2435V7.65ZM24.6188 6.201V18H22.8823C22.5066 18 22.269 17.8275 22.1693 17.4825L21.9738 16.5395C21.4908 17.0302 20.958 17.4288 20.3753 17.7355C19.7926 18.0345 19.1065 18.184 18.3168 18.184C17.6728 18.184 17.1016 18.0767 16.6033 17.862C16.1126 17.6397 15.6986 17.3292 15.3613 16.9305C15.024 16.5318 14.7671 16.0603 14.5908 15.516C14.4221 14.964 14.3378 14.3583 14.3378 13.699V6.201H17.1783V13.699C17.1783 14.4197 17.3431 14.9793 17.6728 15.378C18.0101 15.769 18.5123 15.9645 19.1793 15.9645C19.67 15.9645 20.13 15.8572 20.5593 15.6425C20.9886 15.4202 21.395 15.1173 21.7783 14.734V6.201H24.6188ZM18.7998 3.142C18.7998 3.35667 18.7576 3.55983 18.6733 3.7515C18.589 3.9355 18.4701 4.0965 18.3168 4.2345C18.1711 4.3725 17.9986 4.48367 17.7993 4.568C17.6076 4.64467 17.4006 4.683 17.1783 4.683C16.9713 4.683 16.772 4.64467 16.5803 4.568C16.3963 4.48367 16.2315 4.3725 16.0858 4.2345C15.9478 4.0965 15.8366 3.9355 15.7523 3.7515C15.668 3.55983 15.6258 3.35667 15.6258 3.142C15.6258 2.91967 15.668 2.71267 15.7523 2.521C15.8366 2.32167 15.9478 2.14917 16.0858 2.0035C16.2315 1.85783 16.3963 1.74283 16.5803 1.6585C16.772 1.57417 16.9713 1.532 17.1783 1.532C17.4006 1.532 17.6076 1.57417 17.7993 1.6585C17.9986 1.74283 18.1711 1.85783 18.3168 2.0035C18.4701 2.14917 18.589 2.32167 18.6733 2.521C18.7576 2.71267 18.7998 2.91967 18.7998 3.142ZM23.4458 3.142C23.4458 3.35667 23.4036 3.55983 23.3193 3.7515C23.235 3.9355 23.12 4.0965 22.9743 4.2345C22.8363 4.3725 22.6676 4.48367 22.4683 4.568C22.2766 4.64467 22.0696 4.683 21.8473 4.683C21.6326 4.683 21.4295 4.64467 21.2378 4.568C21.0461 4.48367 20.8775 4.3725 20.7318 4.2345C20.5938 4.0965 20.4826 3.9355 20.3983 3.7515C20.314 3.55983 20.2718 3.35667 20.2718 3.142C20.2718 2.91967 20.314 2.71267 20.3983 2.521C20.4826 2.32167 20.5938 2.14917 20.7318 2.0035C20.8775 1.85783 21.0461 1.74283 21.2378 1.6585C21.4295 1.57417 21.6326 1.532 21.8473 1.532C22.0696 1.532 22.2766 1.57417 22.4683 1.6585C22.6676 1.74283 22.8363 1.85783 22.9743 2.0035C23.12 2.14917 23.235 2.32167 23.3193 2.521C23.4036 2.71267 23.4458 2.91967 23.4458 3.142ZM30.0917 7.65C30.3294 7.41233 30.5786 7.19383 30.8392 6.9945C31.1076 6.7875 31.3874 6.615 31.6787 6.477C31.9777 6.33133 32.2959 6.22017 32.6332 6.1435C32.9706 6.05917 33.3386 6.017 33.7372 6.017C34.3812 6.017 34.9524 6.12817 35.4507 6.3505C35.9491 6.56517 36.3631 6.87183 36.6927 7.2705C37.0301 7.6615 37.2831 8.133 37.4517 8.685C37.6281 9.22933 37.7162 9.83117 37.7162 10.4905V18H34.8757V10.4905C34.8757 9.76983 34.7109 9.214 34.3812 8.823C34.0516 8.42433 33.5494 8.225 32.8747 8.225C32.3841 8.225 31.9241 8.33617 31.4947 8.5585C31.0654 8.78083 30.6591 9.08367 30.2757 9.467V18H27.4352V6.201H29.1717C29.5397 6.201 29.7812 6.3735 29.8962 6.7185L30.0917 7.65ZM47.8236 9.214C47.5016 8.823 47.149 8.547 46.7656 8.386C46.39 8.225 45.9836 8.1445 45.5466 8.1445C45.1173 8.1445 44.7301 8.225 44.3851 8.386C44.0401 8.547 43.745 8.79233 43.4996 9.122C43.2543 9.444 43.0665 9.858 42.9361 10.364C42.8058 10.8623 42.7406 11.4527 42.7406 12.135C42.7406 12.825 42.7943 13.4115 42.9016 13.8945C43.0166 14.3698 43.1776 14.7608 43.3846 15.0675C43.5916 15.3665 43.8446 15.585 44.1436 15.723C44.4426 15.8533 44.7761 15.9185 45.1441 15.9185C45.7345 15.9185 46.2366 15.7958 46.6506 15.5505C47.0646 15.3052 47.4556 14.9563 47.8236 14.504V9.214ZM50.6641 0.910999V18H48.9276C48.552 18 48.3143 17.8275 48.2146 17.4825L47.9731 16.344C47.4978 16.8883 46.9496 17.3292 46.3286 17.6665C45.7153 18.0038 44.9985 18.1725 44.1781 18.1725C43.5341 18.1725 42.9438 18.0383 42.4071 17.77C41.8705 17.5017 41.4066 17.1145 41.0156 16.6085C40.6323 16.0948 40.3333 15.4623 40.1186 14.711C39.9116 13.9597 39.8081 13.101 39.8081 12.135C39.8081 11.261 39.927 10.4483 40.1646 9.697C40.4023 8.94567 40.7435 8.294 41.1881 7.742C41.6328 7.19 42.1656 6.76067 42.7866 6.454C43.4076 6.13967 44.1053 5.9825 44.8796 5.9825C45.539 5.9825 46.1025 6.086 46.5701 6.293C47.0378 6.5 47.4556 6.77983 47.8236 7.1325V0.910999H50.6641Z" fill="#1C2C56"/>
<path d="M10.534 32.0965C10.465 32.2115 10.3883 32.2997 10.304 32.361C10.2273 32.4147 10.1315 32.4415 10.0165 32.4415C9.88617 32.4415 9.73283 32.3763 9.5565 32.246C9.38017 32.1157 9.15783 31.9738 8.8895 31.8205C8.62883 31.6595 8.31067 31.5138 7.935 31.3835C7.567 31.2532 7.1185 31.188 6.5895 31.188C6.09117 31.188 5.65033 31.257 5.267 31.395C4.89133 31.5253 4.57317 31.7055 4.3125 31.9355C4.0595 32.1655 3.86783 32.4377 3.7375 32.752C3.60717 33.0587 3.542 33.3922 3.542 33.7525C3.542 34.2125 3.65317 34.5958 3.8755 34.9025C4.1055 35.2015 4.4045 35.4583 4.7725 35.673C5.14817 35.8877 5.56983 36.0755 6.0375 36.2365C6.51283 36.3898 6.99583 36.5508 7.4865 36.7195C7.98483 36.8882 8.46783 37.0798 8.9355 37.2945C9.41083 37.5015 9.8325 37.766 10.2005 38.088C10.5762 38.41 10.8752 38.8048 11.0975 39.2725C11.3275 39.7402 11.4425 40.3152 11.4425 40.9975C11.4425 41.7182 11.3198 42.3967 11.0745 43.033C10.8292 43.6617 10.4688 44.2098 9.9935 44.6775C9.52583 45.1452 8.947 45.5132 8.257 45.7815C7.57467 46.0498 6.7965 46.184 5.9225 46.184C4.84917 46.184 3.8755 45.9923 3.0015 45.609C2.1275 45.218 1.38 44.6928 0.759 44.0335L1.403 42.9755C1.46433 42.8912 1.53717 42.8222 1.6215 42.7685C1.7135 42.7072 1.81317 42.6765 1.9205 42.6765C2.02017 42.6765 2.13133 42.7187 2.254 42.803C2.38433 42.8797 2.53 42.9793 2.691 43.102C2.852 43.2247 3.036 43.3588 3.243 43.5045C3.45 43.6502 3.68383 43.7843 3.9445 43.907C4.21283 44.0297 4.51567 44.1332 4.853 44.2175C5.19033 44.2942 5.56983 44.3325 5.9915 44.3325C6.5205 44.3325 6.992 44.2597 7.406 44.114C7.82 43.9683 8.16883 43.7652 8.4525 43.5045C8.74383 43.2362 8.96617 42.918 9.1195 42.55C9.27283 42.182 9.3495 41.7718 9.3495 41.3195C9.3495 40.8212 9.2345 40.4148 9.0045 40.1005C8.78217 39.7785 8.487 39.5102 8.119 39.2955C7.751 39.0808 7.32933 38.9007 6.854 38.755C6.37867 38.6017 5.89567 38.4483 5.405 38.295C4.91433 38.134 4.43133 37.95 3.956 37.743C3.48067 37.536 3.059 37.2677 2.691 36.938C2.323 36.6083 2.024 36.1982 1.794 35.7075C1.57167 35.2092 1.4605 34.5958 1.4605 33.8675C1.4605 33.2848 1.57167 32.7213 1.794 32.177C2.024 31.6327 2.35367 31.1497 2.783 30.728C3.22 30.3063 3.75283 29.969 4.3815 29.716C5.01783 29.463 5.74617 29.3365 6.5665 29.3365C7.4865 29.3365 8.32217 29.4822 9.0735 29.7735C9.8325 30.0648 10.4995 30.4865 11.0745 31.0385L10.534 32.0965ZM17.1697 46.184C16.2497 46.184 15.5405 45.9272 15.0422 45.4135C14.5515 44.8998 14.3062 44.16 14.3062 43.194V36.064H12.9032C12.7805 36.064 12.677 36.0295 12.5927 35.9605C12.5083 35.8838 12.4662 35.7688 12.4662 35.6155V34.799L14.3752 34.5575L14.8467 30.958C14.8697 30.843 14.9195 30.751 14.9962 30.682C15.0805 30.6053 15.1878 30.567 15.3182 30.567H16.3532V34.5805H19.7227V36.064H16.3532V43.056C16.3532 43.5467 16.472 43.9108 16.7097 44.1485C16.9473 44.3862 17.254 44.505 17.6297 44.505C17.8443 44.505 18.0283 44.4782 18.1817 44.4245C18.3427 44.3632 18.4807 44.298 18.5957 44.229C18.7107 44.16 18.8065 44.0987 18.8832 44.045C18.9675 43.9837 19.0403 43.953 19.1017 43.953C19.209 43.953 19.3048 44.0182 19.3892 44.1485L19.9872 45.126C19.6345 45.4557 19.209 45.7163 18.7107 45.908C18.2123 46.092 17.6987 46.184 17.1697 46.184ZM28.1498 40.756C27.2068 40.7867 26.4018 40.8633 25.7348 40.986C25.0755 41.101 24.535 41.2543 24.1133 41.446C23.6993 41.6377 23.3965 41.8638 23.2048 42.1245C23.0208 42.3852 22.9288 42.6765 22.9288 42.9985C22.9288 43.3052 22.9787 43.5697 23.0783 43.792C23.178 44.0143 23.3122 44.1983 23.4808 44.344C23.6572 44.482 23.8603 44.5855 24.0903 44.6545C24.328 44.7158 24.581 44.7465 24.8493 44.7465C25.2097 44.7465 25.5393 44.712 25.8383 44.643C26.1373 44.5663 26.4172 44.459 26.6778 44.321C26.9462 44.183 27.1992 44.0182 27.4368 43.8265C27.6822 43.6348 27.9198 43.4163 28.1498 43.171V40.756ZM21.5373 35.995C22.1813 35.374 22.8752 34.9102 23.6188 34.6035C24.3625 34.2968 25.1867 34.1435 26.0913 34.1435C26.743 34.1435 27.3218 34.2508 27.8278 34.4655C28.3338 34.6802 28.7593 34.9792 29.1043 35.3625C29.4493 35.7458 29.71 36.2097 29.8863 36.754C30.0627 37.2983 30.1508 37.8963 30.1508 38.548V46H29.2423C29.043 46 28.8897 45.9693 28.7823 45.908C28.675 45.839 28.5907 45.7087 28.5293 45.517L28.2993 44.413C27.9927 44.6967 27.6937 44.9497 27.4023 45.172C27.111 45.3867 26.8043 45.5707 26.4823 45.724C26.1603 45.8697 25.8153 45.9808 25.4473 46.0575C25.087 46.1418 24.6845 46.184 24.2398 46.184C23.7875 46.184 23.362 46.1227 22.9633 46C22.5647 45.8697 22.2158 45.678 21.9168 45.425C21.6255 45.172 21.3917 44.8538 21.2153 44.4705C21.0467 44.0795 20.9623 43.6195 20.9623 43.0905C20.9623 42.6305 21.0888 42.1897 21.3418 41.768C21.5948 41.3387 22.005 40.9592 22.5723 40.6295C23.1397 40.2998 23.8795 40.0315 24.7918 39.8245C25.7042 39.6098 26.8235 39.4872 28.1498 39.4565V38.548C28.1498 37.6433 27.9543 36.961 27.5633 36.501C27.1723 36.0333 26.6012 35.7995 25.8498 35.7995C25.3438 35.7995 24.9183 35.8647 24.5733 35.995C24.236 36.1177 23.9408 36.2595 23.6878 36.4205C23.4425 36.5738 23.2278 36.7157 23.0438 36.846C22.8675 36.9687 22.6912 37.03 22.5148 37.03C22.3768 37.03 22.258 36.9955 22.1583 36.9265C22.0587 36.8498 21.9743 36.7578 21.9053 36.6505L21.5373 35.995ZM35.201 36.041C35.454 35.7573 35.7223 35.5005 36.006 35.2705C36.2896 35.0405 36.5886 34.845 36.903 34.684C37.225 34.5153 37.5623 34.3888 37.915 34.3045C38.2753 34.2125 38.6625 34.1665 39.0765 34.1665C39.7128 34.1665 40.2725 34.2738 40.7555 34.4885C41.2461 34.6955 41.6525 34.9945 41.9745 35.3855C42.3041 35.7688 42.5533 36.2327 42.722 36.777C42.8906 37.3213 42.975 37.9232 42.975 38.5825V46H40.9165V38.5825C40.9165 37.7008 40.7133 37.0185 40.307 36.5355C39.9083 36.0448 39.2988 35.7995 38.4785 35.7995C37.8728 35.7995 37.3055 35.9452 36.7765 36.2365C36.2551 36.5278 35.7721 36.9227 35.3275 37.421V46H33.269V34.3505H34.4995C34.7908 34.3505 34.971 34.4923 35.04 34.776L35.201 36.041ZM53.6842 37.122C53.3008 36.6083 52.8868 36.2518 52.4422 36.0525C51.9975 35.8455 51.4992 35.742 50.9472 35.742C49.8662 35.742 49.0343 36.1292 48.4517 36.9035C47.869 37.6778 47.5777 38.7818 47.5777 40.2155C47.5777 40.9745 47.6428 41.6262 47.7732 42.1705C47.9035 42.7072 48.0952 43.1518 48.3482 43.5045C48.6012 43.8495 48.9117 44.1025 49.2797 44.2635C49.6477 44.4245 50.0655 44.505 50.5332 44.505C51.2078 44.505 51.7943 44.3517 52.2927 44.045C52.7987 43.7383 53.2625 43.3052 53.6842 42.7455V37.122ZM55.7312 29.0605V46H54.5122C54.2208 46 54.0368 45.8582 53.9602 45.5745L53.7762 44.16C53.2778 44.758 52.7105 45.241 52.0742 45.609C51.4378 45.977 50.7018 46.161 49.8662 46.161C49.1992 46.161 48.5935 46.0345 48.0492 45.7815C47.5048 45.5208 47.041 45.1413 46.6577 44.643C46.2743 44.1447 45.9792 43.5237 45.7722 42.78C45.5652 42.0363 45.4617 41.1815 45.4617 40.2155C45.4617 39.3568 45.5767 38.5595 45.8067 37.8235C46.0367 37.0798 46.3663 36.4358 46.7957 35.8915C47.225 35.3472 47.7502 34.9217 48.3712 34.615C48.9998 34.3007 49.7052 34.1435 50.4872 34.1435C51.2002 34.1435 51.8097 34.2662 52.3157 34.5115C52.8293 34.7492 53.2855 35.0827 53.6842 35.512V29.0605H55.7312ZM65.2778 40.756C64.3348 40.7867 63.5298 40.8633 62.8628 40.986C62.2034 41.101 61.6629 41.2543 61.2413 41.446C60.8273 41.6377 60.5244 41.8638 60.3328 42.1245C60.1488 42.3852 60.0568 42.6765 60.0568 42.9985C60.0568 43.3052 60.1066 43.5697 60.2063 43.792C60.3059 44.0143 60.4401 44.1983 60.6088 44.344C60.7851 44.482 60.9883 44.5855 61.2183 44.6545C61.4559 44.7158 61.7089 44.7465 61.9773 44.7465C62.3376 44.7465 62.6673 44.712 62.9663 44.643C63.2653 44.5663 63.5451 44.459 63.8058 44.321C64.0741 44.183 64.3271 44.0182 64.5648 43.8265C64.8101 43.6348 65.0478 43.4163 65.2778 43.171V40.756ZM58.6653 35.995C59.3093 35.374 60.0031 34.9102 60.7468 34.6035C61.4904 34.2968 62.3146 34.1435 63.2193 34.1435C63.8709 34.1435 64.4498 34.2508 64.9558 34.4655C65.4618 34.6802 65.8873 34.9792 66.2323 35.3625C66.5773 35.7458 66.8379 36.2097 67.0143 36.754C67.1906 37.2983 67.2788 37.8963 67.2788 38.548V46H66.3703C66.1709 46 66.0176 45.9693 65.9103 45.908C65.8029 45.839 65.7186 45.7087 65.6573 45.517L65.4273 44.413C65.1206 44.6967 64.8216 44.9497 64.5303 45.172C64.2389 45.3867 63.9323 45.5707 63.6103 45.724C63.2883 45.8697 62.9433 45.9808 62.5753 46.0575C62.2149 46.1418 61.8124 46.184 61.3678 46.184C60.9154 46.184 60.4899 46.1227 60.0913 46C59.6926 45.8697 59.3438 45.678 59.0448 45.425C58.7534 45.172 58.5196 44.8538 58.3433 44.4705C58.1746 44.0795 58.0903 43.6195 58.0903 43.0905C58.0903 42.6305 58.2168 42.1897 58.4698 41.768C58.7228 41.3387 59.1329 40.9592 59.7003 40.6295C60.2676 40.2998 61.0074 40.0315 61.9198 39.8245C62.8321 39.6098 63.9514 39.4872 65.2778 39.4565V38.548C65.2778 37.6433 65.0823 36.961 64.6913 36.501C64.3003 36.0333 63.7291 35.7995 62.9778 35.7995C62.4718 35.7995 62.0463 35.8647 61.7013 35.995C61.3639 36.1177 61.0688 36.2595 60.8158 36.4205C60.5704 36.5738 60.3558 36.7157 60.1718 36.846C59.9954 36.9687 59.8191 37.03 59.6428 37.03C59.5048 37.03 59.3859 36.9955 59.2863 36.9265C59.1866 36.8498 59.1023 36.7578 59.0333 36.6505L58.6653 35.995ZM72.3404 36.685C72.7084 35.8877 73.1607 35.2667 73.6974 34.822C74.2341 34.3697 74.8896 34.1435 75.6639 34.1435C75.9092 34.1435 76.1431 34.1703 76.3654 34.224C76.5954 34.2777 76.7986 34.362 76.9749 34.477L76.8254 36.0065C76.7794 36.1982 76.6644 36.294 76.4804 36.294C76.3731 36.294 76.2159 36.271 76.0089 36.225C75.8019 36.179 75.5681 36.156 75.3074 36.156C74.9394 36.156 74.6097 36.2097 74.3184 36.317C74.0347 36.4243 73.7779 36.5853 73.5479 36.8C73.3256 37.007 73.1224 37.2677 72.9384 37.582C72.7621 37.8887 72.6011 38.2413 72.4554 38.64V46H70.3969V34.3505H71.5699C71.7922 34.3505 71.9456 34.3927 72.0299 34.477C72.1142 34.5613 72.1717 34.707 72.2024 34.914L72.3404 36.685ZM85.9156 37.122C85.5323 36.6083 85.1183 36.2518 84.6736 36.0525C84.2289 35.8455 83.7306 35.742 83.1786 35.742C82.0976 35.742 81.2658 36.1292 80.6831 36.9035C80.1004 37.6778 79.8091 38.7818 79.8091 40.2155C79.8091 40.9745 79.8743 41.6262 80.0046 42.1705C80.1349 42.7072 80.3266 43.1518 80.5796 43.5045C80.8326 43.8495 81.1431 44.1025 81.5111 44.2635C81.8791 44.4245 82.2969 44.505 82.7646 44.505C83.4393 44.505 84.0258 44.3517 84.5241 44.045C85.0301 43.7383 85.4939 43.3052 85.9156 42.7455V37.122ZM87.9626 29.0605V46H86.7436C86.4523 46 86.2683 45.8582 86.1916 45.5745L86.0076 44.16C85.5093 44.758 84.9419 45.241 84.3056 45.609C83.6693 45.977 82.9333 46.161 82.0976 46.161C81.4306 46.161 80.8249 46.0345 80.2806 45.7815C79.7363 45.5208 79.2724 45.1413 78.8891 44.643C78.5058 44.1447 78.2106 43.5237 78.0036 42.78C77.7966 42.0363 77.6931 41.1815 77.6931 40.2155C77.6931 39.3568 77.8081 38.5595 78.0381 37.8235C78.2681 37.0798 78.5978 36.4358 79.0271 35.8915C79.4564 35.3472 79.9816 34.9217 80.6026 34.615C81.2313 34.3007 81.9366 34.1435 82.7186 34.1435C83.4316 34.1435 84.0411 34.2662 84.5471 34.5115C85.0608 34.7492 85.5169 35.0827 85.9156 35.512V29.0605H87.9626Z" fill="#A4ABBB"/>
</svg>
