<svg width="41" height="40" viewBox="0 0 41 40" fill="none" xmlns="http://www.w3.org/2000/svg">
<rect x="0.169922" width="40" height="40" rx="20" fill="white"/>
<path d="M20.1899 10.91C16.8799 10.91 14.1899 13.6 14.1899 16.91V19.8C14.1899 20.41 13.9299 21.34 13.6199 21.86L12.4699 23.77C11.7599 24.95 12.2499 26.26 13.5499 26.7C17.8599 28.14 22.5099 28.14 26.8199 26.7C28.0299 26.3 28.5599 24.87 27.8999 23.77L26.7499 21.86C26.4499 21.34 26.1899 20.41 26.1899 19.8V16.91C26.1899 13.61 23.4899 10.91 20.1899 10.91Z" fill="#162345" stroke="#162345" stroke-width="1.5" stroke-miterlimit="10" stroke-linecap="round"/>
<path d="M22.0399 11.2C21.7299 11.11 21.4099 11.04 21.0799 11C20.1199 10.88 19.1999 10.95 18.3399 11.2C18.6299 10.46 19.3499 9.94 20.1899 9.94C21.0299 9.94 21.7499 10.46 22.0399 11.2Z" fill="#162345" stroke="#162345" stroke-width="1.5" stroke-miterlimit="10" stroke-linecap="round" stroke-linejoin="round"/>
<path opacity="0.4" d="M23.1899 27.06C23.1899 28.71 21.8399 30.06 20.1899 30.06C19.3699 30.06 18.6099 29.72 18.0699 29.18C17.5299 28.64 17.1899 27.88 17.1899 27.06" stroke="#162345" stroke-width="1.5" stroke-miterlimit="10"/>
</svg>
