<svg width="99" height="34" viewBox="0 0 99 34" fill="none" xmlns="http://www.w3.org/2000/svg">
<rect width="98.3333" height="34" rx="4" fill="#1C2C56" fill-opacity="0.05"/>
<g opacity="0.4">
<path d="M21.1869 15.9667L23.6669 13.4867L21.1869 11.0067" stroke="#1C2C56" stroke-width="1.5" stroke-linecap="round" stroke-linejoin="round"/>
<path d="M11.6667 13.4867H23.6667" stroke="#1C2C56" stroke-width="1.5" stroke-linecap="round" stroke-linejoin="round"/>
</g>
<path d="M14.1467 18.0333L11.6667 20.5133L14.1467 22.9933" stroke="#1C2C56" stroke-width="1.5" stroke-linecap="round" stroke-linejoin="round"/>
<path d="M23.6667 20.5133H11.6667" stroke="#1C2C56" stroke-width="1.5" stroke-linecap="round" stroke-linejoin="round"/>
<path d="M35.6467 14.187C35.6034 14.2607 35.5579 14.3148 35.5102 14.3495C35.4625 14.3842 35.4019 14.4015 35.3282 14.4015C35.2502 14.4015 35.1614 14.3668 35.0617 14.2975C34.962 14.2238 34.8364 14.1437 34.6847 14.057C34.5374 13.966 34.3597 13.8858 34.1517 13.8165C33.9437 13.7428 33.6945 13.706 33.4042 13.706C33.1312 13.706 32.8907 13.7428 32.6827 13.8165C32.479 13.8858 32.3079 13.9833 32.1692 14.109C32.0305 14.2303 31.9244 14.3755 31.8507 14.5445C31.7814 14.7092 31.7467 14.889 31.7467 15.084C31.7467 15.3353 31.8095 15.5433 31.9352 15.708C32.0652 15.8727 32.2342 16.0135 32.4422 16.1305C32.6502 16.2475 32.8864 16.3493 33.1507 16.436C33.415 16.5227 33.6859 16.6137 33.9632 16.709C34.2405 16.8 34.5114 16.9062 34.7757 17.0275C35.04 17.1488 35.2762 17.3027 35.4842 17.489C35.6922 17.671 35.859 17.8963 35.9847 18.165C36.1147 18.4293 36.1797 18.7543 36.1797 19.14C36.1797 19.5517 36.1082 19.9373 35.9652 20.297C35.8265 20.6567 35.6229 20.9708 35.3542 21.2395C35.0855 21.5082 34.754 21.7205 34.3597 21.8765C33.9697 22.0282 33.5255 22.104 33.0272 22.104C32.7282 22.104 32.4379 22.0737 32.1562 22.013C31.8745 21.9567 31.608 21.8765 31.3567 21.7725C31.1054 21.6642 30.8692 21.5363 30.6482 21.389C30.4315 21.2373 30.2365 21.0683 30.0632 20.882L30.4597 20.219C30.4987 20.167 30.5442 20.1237 30.5962 20.089C30.6525 20.0543 30.7154 20.037 30.7847 20.037C30.8757 20.037 30.9797 20.0847 31.0967 20.18C31.218 20.2753 31.3654 20.3815 31.5387 20.4985C31.7164 20.6112 31.9265 20.7152 32.1692 20.8105C32.4162 20.9058 32.7152 20.9535 33.0662 20.9535C33.3522 20.9535 33.6079 20.9167 33.8332 20.843C34.0585 20.765 34.247 20.6567 34.3987 20.518C34.5547 20.375 34.6739 20.2038 34.7562 20.0045C34.8385 19.8052 34.8797 19.5842 34.8797 19.3415C34.8797 19.0685 34.8169 18.8453 34.6912 18.672C34.5655 18.4987 34.3987 18.3535 34.1907 18.2365C33.9827 18.1195 33.7465 18.0198 33.4822 17.9375C33.2179 17.8552 32.947 17.7707 32.6697 17.684C32.3924 17.593 32.1215 17.489 31.8572 17.372C31.5929 17.255 31.3567 17.1033 31.1487 16.917C30.9407 16.7263 30.7739 16.4902 30.6482 16.2085C30.5225 15.9225 30.4597 15.5715 30.4597 15.1555C30.4597 14.8218 30.5247 14.499 30.6547 14.187C30.7847 13.875 30.9732 13.5998 31.2202 13.3615C31.4715 13.1188 31.7792 12.926 32.1432 12.783C32.5072 12.6357 32.9232 12.562 33.3912 12.562C33.9155 12.562 34.3965 12.6465 34.8342 12.8155C35.2762 12.9802 35.6597 13.2185 35.9847 13.5305L35.6467 14.187ZM39.4035 22.104C38.8705 22.104 38.4588 21.9545 38.1685 21.6555C37.8825 21.3565 37.7395 20.9297 37.7395 20.375V16.423H36.9725C36.8988 16.423 36.836 16.4013 36.784 16.358C36.7363 16.3103 36.7125 16.241 36.7125 16.15V15.6365L37.785 15.487L38.071 13.5175C38.0883 13.4438 38.1208 13.3875 38.1685 13.3485C38.2205 13.3052 38.2855 13.2835 38.3635 13.2835H39.007V15.5H40.879V16.423H39.007V20.2905C39.007 20.5505 39.0698 20.7455 39.1955 20.8755C39.3255 21.0012 39.4902 21.064 39.6895 21.064C39.8065 21.064 39.9062 21.0488 39.9885 21.0185C40.0752 20.9882 40.1488 20.9557 40.2095 20.921C40.2702 20.882 40.3222 20.8473 40.3655 20.817C40.4088 20.7867 40.4478 20.7715 40.4825 20.7715C40.5258 20.7715 40.5583 20.7823 40.58 20.804C40.606 20.8213 40.632 20.8517 40.658 20.895L41.035 21.506C40.827 21.6967 40.58 21.844 40.294 21.948C40.008 22.052 39.7112 22.104 39.4035 22.104ZM45.5954 19.0685C45.0798 19.0858 44.6421 19.127 44.2824 19.192C43.9228 19.2527 43.6303 19.335 43.4049 19.439C43.1796 19.543 43.0171 19.6665 42.9174 19.8095C42.8178 19.9482 42.7679 20.1042 42.7679 20.2775C42.7679 20.4422 42.7939 20.5852 42.8459 20.7065C42.9023 20.8235 42.9759 20.921 43.0669 20.999C43.1623 21.0727 43.2728 21.1268 43.3984 21.1615C43.5241 21.1962 43.6606 21.2135 43.8079 21.2135C44.0029 21.2135 44.1806 21.194 44.3409 21.155C44.5056 21.116 44.6594 21.0618 44.8024 20.9925C44.9454 20.9188 45.0819 20.83 45.2119 20.726C45.3419 20.622 45.4698 20.5028 45.5954 20.3685V19.0685ZM41.8774 16.319C42.2458 15.968 42.6444 15.7058 43.0734 15.5325C43.5068 15.3592 43.9813 15.2725 44.4969 15.2725C44.8739 15.2725 45.2076 15.3353 45.4979 15.461C45.7883 15.5823 46.0331 15.7535 46.2324 15.9745C46.4318 16.1955 46.5813 16.4598 46.6809 16.7675C46.7849 17.0752 46.8369 17.4153 46.8369 17.788V22H46.2714C46.1458 22 46.0504 21.9805 45.9854 21.9415C45.9204 21.8982 45.8684 21.8202 45.8294 21.7075L45.6929 21.129C45.5239 21.285 45.3571 21.4237 45.1924 21.545C45.0278 21.662 44.8544 21.7638 44.6724 21.8505C44.4948 21.9328 44.3041 21.9957 44.1004 22.039C43.8968 22.0823 43.6714 22.104 43.4244 22.104C43.1644 22.104 42.9196 22.0693 42.6899 22C42.4646 21.9263 42.2674 21.8158 42.0984 21.6685C41.9294 21.5212 41.7951 21.337 41.6954 21.116C41.6001 20.895 41.5524 20.6372 41.5524 20.3425C41.5524 20.0825 41.6218 19.8333 41.7604 19.595C41.9034 19.3523 42.1331 19.1357 42.4494 18.945C42.7701 18.7543 43.1861 18.5983 43.6974 18.477C44.2131 18.3557 44.8458 18.2863 45.5954 18.269V17.788C45.5954 17.2897 45.4893 16.917 45.2769 16.67C45.0646 16.423 44.7526 16.2995 44.3409 16.2995C44.0636 16.2995 43.8296 16.3342 43.6389 16.4035C43.4526 16.4728 43.2901 16.5508 43.1514 16.6375C43.0171 16.7198 42.8979 16.7957 42.7939 16.865C42.6943 16.9343 42.5903 16.969 42.4819 16.969C42.3953 16.969 42.3194 16.9452 42.2544 16.8975C42.1938 16.8498 42.1439 16.7935 42.1049 16.7285L41.8774 16.319ZM49.7297 16.6635C49.9421 16.2302 50.1977 15.89 50.4967 15.643C50.7957 15.396 51.1554 15.2725 51.5757 15.2725C51.7187 15.2725 51.8531 15.2898 51.9787 15.3245C52.1087 15.3548 52.2214 15.4025 52.3167 15.4675L52.2322 16.423C52.2019 16.54 52.1304 16.5985 52.0177 16.5985C51.9571 16.5985 51.8661 16.5877 51.7447 16.566C51.6234 16.54 51.4934 16.527 51.3547 16.527C51.1511 16.527 50.9712 16.5573 50.8152 16.618C50.6592 16.6743 50.5184 16.761 50.3927 16.878C50.2714 16.9907 50.1631 17.1315 50.0677 17.3005C49.9724 17.4652 49.8836 17.6537 49.8012 17.866V22H48.5337V15.396H49.2617C49.4004 15.396 49.4936 15.422 49.5412 15.474C49.5932 15.5217 49.6301 15.6083 49.6517 15.734L49.7297 16.6635ZM55.3615 22.104C54.8285 22.104 54.4168 21.9545 54.1265 21.6555C53.8405 21.3565 53.6975 20.9297 53.6975 20.375V16.423H52.9305C52.8568 16.423 52.794 16.4013 52.742 16.358C52.6943 16.3103 52.6705 16.241 52.6705 16.15V15.6365L53.743 15.487L54.029 13.5175C54.0463 13.4438 54.0788 13.3875 54.1265 13.3485C54.1785 13.3052 54.2435 13.2835 54.3215 13.2835H54.965V15.5H56.837V16.423H54.965V20.2905C54.965 20.5505 55.0278 20.7455 55.1535 20.8755C55.2835 21.0012 55.4482 21.064 55.6475 21.064C55.7645 21.064 55.8642 21.0488 55.9465 21.0185C56.0332 20.9882 56.1068 20.9557 56.1675 20.921C56.2282 20.882 56.2802 20.8473 56.3235 20.817C56.3668 20.7867 56.4058 20.7715 56.4405 20.7715C56.4838 20.7715 56.5163 20.7823 56.538 20.804C56.564 20.8213 56.59 20.8517 56.616 20.895L56.993 21.506C56.785 21.6967 56.538 21.844 56.252 21.948C55.966 22.052 55.6692 22.104 55.3615 22.104ZM69.1965 12.666V22H68.4945C68.3862 22 68.2952 21.9805 68.2215 21.9415C68.1522 21.9025 68.0807 21.8397 68.007 21.753L62.7355 14.9345C62.7442 15.0515 62.7507 15.1663 62.755 15.279C62.7637 15.3917 62.768 15.4978 62.768 15.5975V22H61.5525V12.666H62.2675C62.3889 12.666 62.4799 12.6812 62.5405 12.7115C62.6012 12.7375 62.6684 12.8003 62.742 12.9L68.0265 19.725C68.0135 19.5993 68.0027 19.478 67.994 19.361C67.9897 19.2397 67.9875 19.127 67.9875 19.023V12.666H69.1965ZM73.857 15.292C74.3424 15.292 74.78 15.3722 75.17 15.5325C75.5644 15.6885 75.898 15.916 76.171 16.215C76.4484 16.5097 76.6607 16.8672 76.808 17.2875C76.9554 17.7035 77.029 18.1715 77.029 18.6915C77.029 19.2115 76.9554 19.6817 76.808 20.102C76.6607 20.5223 76.4484 20.8798 76.171 21.1745C75.898 21.4692 75.5644 21.6967 75.17 21.857C74.78 22.013 74.3424 22.091 73.857 22.091C73.3674 22.091 72.9254 22.013 72.531 21.857C72.141 21.6967 71.8074 21.4692 71.53 21.1745C71.2527 20.8798 71.0382 20.5223 70.8865 20.102C70.7392 19.6817 70.6655 19.2115 70.6655 18.6915C70.6655 18.1715 70.7392 17.7035 70.8865 17.2875C71.0382 16.8672 71.2527 16.5097 71.53 16.215C71.8074 15.916 72.141 15.6885 72.531 15.5325C72.9254 15.3722 73.3674 15.292 73.857 15.292ZM73.857 21.103C74.481 21.103 74.9469 20.8928 75.2545 20.4725C75.5622 20.0522 75.716 19.4607 75.716 18.698C75.716 17.9353 75.5622 17.3438 75.2545 16.9235C74.9469 16.4988 74.481 16.2865 73.857 16.2865C73.2244 16.2865 72.752 16.4988 72.44 16.9235C72.1324 17.3438 71.9785 17.9353 71.9785 18.698C71.9785 19.4607 72.1324 20.0522 72.44 20.4725C72.752 20.8928 73.2244 21.103 73.857 21.103ZM87.5268 15.396L85.4013 22H84.3873C84.266 22 84.1837 21.9198 84.1403 21.7595L82.7493 17.4565C82.7147 17.3482 82.6843 17.242 82.6583 17.138C82.6323 17.0297 82.6085 16.9213 82.5868 16.813C82.5478 17.0383 82.4937 17.2572 82.4243 17.4695L81.0138 21.7595C80.9705 21.9198 80.8773 22 80.7343 22H79.7723L77.6403 15.396H78.6413C78.741 15.396 78.8233 15.4198 78.8883 15.4675C78.9577 15.5152 79.0032 15.5758 79.0248 15.6495L80.2143 19.7055C80.2533 19.8702 80.288 20.0305 80.3183 20.1865C80.3487 20.3425 80.3768 20.4985 80.4028 20.6545C80.4418 20.4985 80.483 20.3425 80.5263 20.1865C80.574 20.0305 80.6217 19.8702 80.6693 19.7055L81.9888 15.6235C82.0105 15.5498 82.0517 15.4913 82.1123 15.448C82.173 15.4003 82.2467 15.3765 82.3333 15.3765H82.8858C82.9812 15.3765 83.0592 15.4003 83.1198 15.448C83.1848 15.4913 83.2282 15.5498 83.2498 15.6235L84.5368 19.7055C84.5845 19.8702 84.63 20.0327 84.6733 20.193C84.7167 20.349 84.7557 20.5072 84.7903 20.6675C84.8163 20.5115 84.8467 20.3555 84.8813 20.1995C84.916 20.0392 84.955 19.8745 84.9983 19.7055L86.2073 15.6495C86.229 15.5758 86.2723 15.5152 86.3373 15.4675C86.4067 15.4198 86.4847 15.396 86.5713 15.396H87.5268Z" fill="#1C2C56"/>
</svg>
