<svg width="120" height="124" viewBox="0 0 120 124" fill="none" xmlns="http://www.w3.org/2000/svg">
<g clip-path="url(#clip0_32_4912)">
<path d="M108.873 76.1889C107.085 76.0599 105.157 75.6217 103.627 74.9964C103.28 74.855 103.036 73.5693 102.861 73.5047L102.503 71.7831C102.457 70.2493 102.397 68.5546 102.372 68.0175L102.325 67.0407H103.607L103.77 68.2421C104.379 72.7304 106.809 74.9892 111.028 74.9892C113.83 74.9892 115.567 73.9641 116.441 71.7939C116.714 71.117 116.756 70.7679 116.762 69.1272C116.768 67.2599 116.763 67.2298 116.317 66.3388C115.534 64.7755 114.742 64.2571 110.796 62.7244C109.625 62.2697 108.235 61.6852 107.707 61.4252C104.261 59.7311 102.553 57.3276 102.56 54.1802C102.569 50.1536 104.867 47.2473 108.874 46.1953C110.268 45.8293 113.666 45.8692 115.121 46.269C116.484 46.6437 118.287 47.3401 118.478 47.5665C118.56 47.6629 118.653 48.8026 118.695 50.2143C118.736 51.5775 118.792 53.0111 118.819 53.4001L118.87 54.1074H117.571L117.286 52.6887C116.622 49.3854 115.063 47.6443 112.379 47.2078C110.206 46.8544 107.573 47.6727 106.536 49.0231C105.748 50.0497 105.51 50.8539 105.51 52.4907C105.51 53.7921 105.543 53.9684 105.918 54.6948C106.405 55.6382 107.097 56.2552 108.393 56.9012C109.301 57.3537 112.367 58.5533 112.616 58.5533C112.857 58.5533 115.611 59.8929 116.323 60.3565C118.303 61.6461 119.406 63.3768 119.799 65.8111C119.991 67.001 120 67.3978 119.859 68.5004C119.538 70.9984 118.792 72.5463 117.216 73.9793C115.197 75.8162 112.738 76.4675 108.873 76.1887V76.1889ZM60.1509 76.0068C55.7802 75.19 53.7137 72.9459 53.1385 68.3915C53.0495 67.6881 52.9942 63.4599 52.9942 57.3779V47.506H49.6992V46.2937H60.5455V47.4982L58.7949 47.5359L57.0444 47.5736L57.0044 56.3305C56.952 67.725 57.084 69.56 58.1015 71.5881C59.1052 73.5888 61.0446 74.5853 63.9347 74.5853C67.2123 74.5853 69.0393 73.3897 70.0248 70.6001C70.6553 68.8158 70.7038 67.8731 70.7047 57.3747L70.7053 47.5062H67.4104V46.2937H75.3734V47.5062H72.3641L72.3212 58.2502C72.2787 68.8811 72.2749 69.0058 71.9727 70.0721C71.0792 73.2226 69.3127 74.9877 66.2435 75.7969C64.8099 76.1748 61.6347 76.2843 60.1512 76.0072L60.1509 76.0068ZM77.1844 75.2316L77.2269 74.6525L78.8745 74.6311L80.5221 74.6098L80.557 61.062L80.5921 47.5144L78.9096 47.4765L77.2271 47.4387L77.1849 46.8661L77.1426 46.2937H83.886C88.1504 46.2937 90.9922 46.3486 91.6168 46.4433C94.001 46.805 95.6292 47.8323 96.5049 49.5268C97.2599 50.9882 97.4924 52.8184 97.1401 54.528C96.7623 56.3617 95.9828 57.492 94.4201 58.4725C93.364 59.1349 92.6836 59.4092 91.3685 59.7027C90.7644 59.8374 90.219 59.9902 90.1568 60.0421C90.0945 60.0941 90.465 60.1782 90.9805 60.2292C96.284 60.755 98.607 63.0349 98.607 67.7144C98.607 70.2907 97.9836 71.937 96.438 73.4429C95.4905 74.3659 94.3406 74.979 92.7196 75.4248C91.6839 75.71 91.369 75.7228 84.3925 75.7661L77.142 75.811L77.1844 75.2316ZM89.6943 74.3841C92.038 73.7852 93.6056 72.2005 94.1263 69.9036C94.4539 68.4592 94.3419 65.8113 93.9058 64.6832C93.3755 63.3113 92.4812 62.2131 91.3912 61.595C90.3017 60.977 89.5118 60.8434 86.95 60.8434H84.5723V74.5851H86.7402C88.2189 74.5851 89.1579 74.5213 89.6943 74.3841ZM89.6867 59.3116C91.9571 58.5922 93.2813 56.3801 93.2584 53.3455C93.2344 50.1803 91.5946 47.9027 89.0808 47.5433C88.6776 47.4858 87.4983 47.4572 86.4602 47.4797L84.5723 47.5207V53.4857C84.5723 56.7667 84.6185 59.4983 84.6752 59.5559C84.8541 59.7381 88.9752 59.5371 89.6867 59.3116Z" fill="#FC0101"/>
<path d="M21.0386 84.1827C20.6063 84.0602 20.5923 84.0337 20.5923 83.3299C20.5923 82.6176 20.5836 82.6018 20.1462 82.5185C19.3299 82.3633 17.9232 81.733 17.2662 81.2278C14.8458 79.3674 14.0165 76.4581 15.1063 73.652C15.803 71.8575 17.7256 70.2533 19.8048 69.7311C20.8094 69.479 20.7619 69.1967 19.6999 69.1099L18.8762 69.0425V67.6954L19.7341 67.6553L20.5923 67.6152V64.1861C20.5923 62.3002 20.5634 60.757 20.5285 60.757C20.4932 60.757 19.4579 61.5604 18.2274 62.5421C16.997 63.5239 15.821 64.4571 15.6141 64.6161C15.4072 64.775 15.2387 64.9569 15.2398 65.0202C15.241 65.0837 15.4512 65.378 15.7073 65.6744C16.1589 66.1976 16.1662 66.2242 15.9524 66.58C15.8315 66.7817 15.5621 67.005 15.3543 67.0759C15.0076 67.1945 14.9305 67.1527 14.4306 66.5746C14.0376 66.1202 13.8429 65.9844 13.7338 66.0889C13.624 66.1945 13.7031 66.487 14.0219 67.1555C14.4028 67.9541 14.4695 68.2598 14.5237 69.456C14.5751 70.5915 14.5355 70.998 14.2999 71.7576C13.6518 73.8456 12.1004 75.3677 9.97209 76.0036C9.19863 76.2348 8.79523 76.2727 7.7066 76.2172C6.19169 76.1398 5.31776 75.8525 4.084 75.0264C3.6506 74.7361 3.2492 74.5013 3.19164 74.5043C3.13407 74.5073 2.87714 74.686 2.62043 74.9013C2.17858 75.2721 2.13257 75.2825 1.76473 75.0958C1.38645 74.9039 0.959045 74.2871 0.959045 73.933C0.959045 73.8365 1.18731 73.5698 1.46624 73.34L1.97366 72.9219L1.60782 72.0941C-1.60933e-06 68.4562 1.6376 64.4836 5.29398 63.1514C5.95631 62.9101 6.37549 62.8578 7.54924 62.8704C9.24597 62.8884 10.0783 63.1423 11.4948 64.0744C12.6156 64.8116 12.893 64.6887 12.1407 63.7878C11.6315 63.1776 11.6235 63.1516 11.8379 62.8012C11.9593 62.6031 12.2251 62.3815 12.4287 62.3084C12.7674 62.187 12.8477 62.2303 13.3664 62.8127L13.9334 63.4495L16.8854 61.1003C18.5088 59.8082 19.837 58.6879 19.837 58.6105C19.837 58.5333 18.5397 57.4429 16.9541 56.1875L14.0708 53.905L13.6931 54.2575C13.2082 54.7107 13.2166 54.9763 13.7276 55.3468C14.2303 55.7118 14.2337 55.7766 13.7769 56.3091L13.4147 56.7319L12.981 56.3195C12.4627 55.8265 12.4063 55.8197 12.0653 56.2102C11.509 56.8477 11.5048 56.9329 12.0138 57.2729C12.2758 57.4479 12.4905 57.6588 12.4909 57.7412C12.4921 57.9175 11.9657 58.602 11.8297 58.6011C11.705 58.6003 9.13906 56.5879 9.08772 56.4503C9.06549 56.3908 9.69849 55.9921 10.4948 55.5641C11.2912 55.1363 11.9426 54.7395 11.9426 54.6823C11.9426 54.625 11.7642 54.4535 11.5459 54.3011L11.1492 54.0238L9.81117 54.7675C9.07505 55.1764 8.45028 55.4889 8.4225 55.4618C8.39494 55.4347 8.58186 54.7651 8.83768 53.9737L9.30309 52.5346L8.95214 52.2638C8.75922 52.1149 8.54252 52.0123 8.47073 52.0357C8.39872 52.0591 8.12889 52.74 7.87107 53.5485C7.61325 54.3573 7.37766 55.0426 7.34765 55.0721C7.29209 55.1263 4.52874 52.9494 4.52874 52.8514C4.52874 52.7226 5.14107 52.0002 5.2502 52.0002C5.31665 52.0002 5.58803 52.1628 5.85319 52.3612L6.33549 52.7222L6.73644 52.3011C6.95692 52.0695 7.1374 51.8378 7.1374 51.7859C7.1374 51.7341 6.90847 51.4978 6.62887 51.2606L6.12034 50.8291L6.45728 50.4117C6.87024 49.9 6.92625 49.8946 7.437 50.3163C7.66148 50.5015 7.89174 50.653 7.94909 50.653C8.08155 50.653 8.787 49.8809 8.77878 49.7448C8.77522 49.6884 8.25291 49.2485 7.61792 48.7669C6.33282 47.7923 6.23169 47.5613 6.80001 46.8983C7.51346 46.0663 6.83601 45.6342 14.9631 52.1032C19.3567 55.6001 20.4374 56.4461 20.5114 56.4461C20.5558 56.4461 20.5923 54.9002 20.5923 53.0106V49.5752H19.2194V50.9223H17.9836V49.5752H16.6107V50.9223H15.375V47.2888L16.0273 47.5414C16.386 47.6802 17.0764 47.9521 17.5611 48.1457C18.0459 48.3393 18.4942 48.4974 18.5566 48.4974C18.6191 48.4974 18.67 48.2701 18.6693 47.9922L18.6684 47.487L17.1399 46.8948L15.6112 46.3025L17.1408 45.7019L18.6702 45.1013V44.5766C18.6702 44.2877 18.6406 44.0516 18.6044 44.0516C18.5682 44.0516 17.9038 44.3008 17.1286 44.6052L15.5468 45.2259C15.4145 45.2775 15.3752 44.8723 15.3752 43.4597V41.6267H16.611V42.9738H17.9836V41.6267H19.2194V42.9738H20.5923V39.8856L21.1213 39.7459C21.4947 39.6473 21.7778 39.6497 22.0825 39.7537L22.5146 39.9016V48.1882C22.5146 55.1959 22.5439 56.4637 22.7049 56.4032C22.8735 56.3397 26.6233 53.3887 33.0892 48.2305C34.2614 47.2955 35.2969 46.4842 35.3903 46.4274C35.6516 46.2691 36.0724 46.4545 36.3598 46.8552C36.9305 47.6505 36.9019 47.7238 35.6316 48.7149C34.9869 49.2179 34.4592 49.6804 34.4592 49.7426C34.4592 49.9152 35.0438 50.653 35.1807 50.653C35.2471 50.653 35.5203 50.4891 35.7879 50.2888L36.2744 49.9247L36.6634 50.3898L37.0528 50.8551L36.5118 51.3265L35.9708 51.7981L36.4 52.2578C36.6938 52.5726 36.8823 52.6788 36.9979 52.5947C37.9267 51.9182 37.8822 51.9293 38.2359 52.2818C38.4148 52.4605 38.5804 52.6764 38.6039 52.7617C38.6508 52.9321 35.979 55.1207 35.8328 55.0318C35.7828 55.0014 35.5363 54.307 35.2849 53.4884C35.0336 52.6699 34.7604 52.0021 34.6779 52.0047C34.5955 52.0071 34.3846 52.1261 34.2096 52.2695L33.8911 52.5299L34.365 54.0164C34.6257 54.8338 34.8091 55.503 34.7726 55.503C34.7362 55.503 34.0894 55.1632 33.3353 54.748L31.9644 53.9928L31.5652 54.3679L31.166 54.7432L32.0233 55.2081C32.4945 55.4639 33.1792 55.8382 33.5449 56.04L34.2092 56.4071L32.7763 57.5552L31.3432 58.7033L30.9591 58.231L30.575 57.7586L31.0996 57.3264L31.6241 56.8943L31.2407 56.4008C31.0296 56.1294 30.8269 55.9071 30.79 55.9071C30.7533 55.9071 30.4895 56.0886 30.2041 56.3104L29.6851 56.7137L29.3131 56.235L28.9408 55.7562L29.4595 55.3161L29.9783 54.8761L29.5789 54.3852C29.2375 53.9652 29.1455 53.918 28.9432 54.0587C28.3611 54.4635 23.2156 58.5415 23.2089 58.6033C23.2045 58.6415 23.5563 58.9446 23.9904 59.277C24.4247 59.6094 25.786 60.6846 27.0156 61.6664C28.2451 62.6482 29.2764 63.4515 29.3068 63.4515C29.3373 63.4515 29.562 63.1787 29.806 62.8453C30.3308 62.128 30.6182 62.0868 31.1891 62.6471L31.605 63.0551L31.244 63.4892C30.7753 64.0521 30.5455 64.5061 30.6679 64.6262C30.7215 64.6787 30.8442 64.6633 30.9407 64.592C31.8535 63.9149 32.9597 63.2947 33.5437 63.1328C36.9336 62.1931 40.0155 63.4537 41.4962 66.3853L42.0792 67.5404V69.2344C42.0792 70.9846 42.0687 71.0291 41.2441 72.82C41.2086 72.897 41.4288 73.1394 41.7335 73.3588C42.1934 73.6901 42.2736 73.815 42.2074 74.0945C42.1212 74.4577 41.6795 74.9833 41.2855 75.1916C41.0945 75.2927 40.9187 75.2185 40.4836 74.8527L39.9261 74.3844L39.3 74.8534C38.0172 75.8144 36.6914 76.2523 35.0824 76.2469C33.179 76.2404 31.7997 75.6903 30.5461 74.4384C29.5726 73.4655 29.0515 72.5724 28.7672 71.3885C28.4036 69.8751 28.5398 68.536 29.2084 67.0495C29.4689 66.4703 29.5195 66.2299 29.4046 66.1171C29.2897 66.0044 29.1824 66.0493 28.9877 66.2912C28.1475 67.3359 28.2402 67.2797 27.7619 67.0371C27.5232 66.9159 27.26 66.6921 27.1769 66.5397C27.0196 66.2513 27.0536 66.1755 27.7263 65.3205L28.0046 64.9667L25.3993 62.8964C23.9664 61.7577 22.73 60.8052 22.652 60.7796C22.5557 60.7481 22.5217 61.8372 22.5464 64.1469L22.5831 67.5605L23.4036 67.6017C24.2922 67.6466 24.4325 67.7513 24.4325 68.3688C24.4325 68.9866 24.2922 69.0911 23.4036 69.136C22.2334 69.1949 22.3181 69.4692 23.6203 69.8376C25.3511 70.3276 26.5837 71.214 27.5643 72.6743C28.749 74.4382 28.8779 76.9718 27.885 78.9774C27.2089 80.3434 25.4042 81.833 23.9119 82.2568C22.4786 82.6638 22.5146 82.6352 22.5146 83.3744C22.5146 83.9973 22.4881 84.0465 22.0821 84.1855C21.5936 84.3524 21.6387 84.3527 21.0386 84.1827ZM20.6181 80.2961C20.6572 79.7462 20.6994 79.6834 21.107 79.5693C21.3811 79.4928 21.7256 79.4928 21.9996 79.5693C22.4117 79.6847 22.451 79.7456 22.5146 80.3635C22.5779 80.9819 22.6093 81.0301 22.9264 80.9975C23.5948 80.929 24.9443 80.1612 25.5935 79.4804C26.601 78.4232 26.9636 77.5173 26.9667 76.0481C26.9682 75.3811 26.8884 74.6066 26.7895 74.3269C26.1165 72.4232 23.7239 71.8868 22.6888 73.4072C22.0721 74.3131 22.413 75.7133 23.3681 76.1979C23.7886 76.4113 24.8039 76.4082 25.2948 76.1923C25.5075 76.0986 25.5349 76.1715 25.5349 76.8289C25.5349 77.5401 25.5171 77.5771 25.1026 77.7189C24.1162 78.0563 22.6306 77.7298 22.0447 77.0463C21.8598 76.8308 21.6822 76.6543 21.6502 76.6543C21.618 76.6543 21.3757 76.8542 21.1115 77.0988C20.3462 77.807 19.2134 78.0372 18.1025 77.7107L17.5718 77.5546V76.8206C17.5718 76.168 17.5985 76.0993 17.812 76.201C17.9443 76.2638 18.4344 76.3159 18.9016 76.3163C19.6563 76.3174 19.7982 76.2729 20.1747 75.9189C21.0179 75.1259 21.017 73.7838 20.1733 73.0104C18.902 71.845 16.815 72.809 16.3322 74.7847C15.8351 76.8176 16.6665 79.0359 18.3517 80.1738C19.0342 80.6346 20.3342 81.133 20.4807 80.9899C20.5325 80.9394 20.5943 80.6272 20.6181 80.2961ZM9.68737 74.5067C11.1543 74.0008 12.4594 72.7888 12.7745 71.6398C13.031 70.7056 12.831 69.946 12.1536 69.2815C11.6301 68.7676 11.4979 68.7058 10.9242 68.7058C9.82051 68.7058 8.99659 69.3638 8.82856 70.3797C8.71343 71.0765 9.20796 71.9842 9.88074 72.3109L10.4133 72.5696L9.84873 72.9952C9.53824 73.2294 9.20129 73.4211 9.10017 73.4211C8.99882 73.4211 8.64276 73.1739 8.30848 72.8714C7.55613 72.1908 7.20519 71.3617 7.32032 70.5364L7.40344 69.9423L6.72466 69.8508C5.68382 69.7103 4.65765 68.8712 4.25448 67.8309C4.12357 67.4931 4.15713 67.4194 4.62854 67.0104C4.91348 66.7635 5.18307 66.5588 5.22775 66.5558C5.27242 66.5527 5.38066 66.7843 5.46779 67.0707C5.68205 67.7715 6.54419 68.3688 7.34143 68.3688C8.42339 68.3688 9.3342 67.4703 9.3342 66.4029C9.3342 65.2331 8.32115 64.3936 6.91269 64.396C4.36983 64.4001 2.1668 67.3079 2.61887 70.0631C2.77334 71.0041 3.07517 71.8042 3.27565 71.8042C3.34899 71.8042 3.59659 71.6498 3.8253 71.4608C4.22558 71.1303 4.25737 71.1253 4.66477 71.3322C4.89769 71.4503 5.19285 71.7621 5.32065 72.0251L5.55314 72.5035L5.04083 72.964C4.75923 73.2172 4.52874 73.4477 4.52874 73.4761C4.52874 73.6273 6.02633 74.4382 6.57175 74.5824C7.53435 74.8369 8.82056 74.8057 9.68737 74.5065V74.5067ZM37.3008 74.3059C37.7689 74.0988 38.2632 73.8085 38.3992 73.6606C38.6399 73.3994 38.6346 73.382 38.2005 73.0262C37.6835 72.6023 37.6393 72.2535 38.0396 71.7543C38.5675 71.0958 38.8151 71.0559 39.4189 71.5321L39.9581 71.9573L40.2635 71.3083C40.5147 70.7745 40.5689 70.42 40.5689 69.312C40.5689 68.1065 40.528 67.8832 40.1813 67.1902C39.599 66.0263 38.5817 65.0046 37.6733 64.6711C36.0539 64.0766 34.6695 64.4491 34.0665 65.6419C33.6393 66.4875 33.7427 67.0597 34.4481 67.7515C35.3483 68.6351 36.508 68.6074 37.3355 67.6824C37.566 67.425 37.7544 67.0649 37.7544 66.8823C37.7544 66.4517 37.8591 66.4634 38.4781 66.964C39.0631 67.4372 39.0907 67.5809 38.7288 68.2732C38.2683 69.1544 37.3066 69.783 36.3624 69.82L35.8099 69.8417L35.8972 70.4124C36.0293 71.2771 35.7346 72.0418 34.9844 72.781C34.6273 73.1331 34.2359 73.4211 34.1145 73.4211C33.9932 73.4211 33.6493 73.2281 33.3502 72.9922L32.8065 72.5635L33.1866 72.4031C33.8542 72.1216 34.2179 71.6095 34.2925 70.8443C34.3792 69.9577 34.0578 69.3242 33.3386 68.964C32.2767 68.4324 31.2723 68.7181 30.6724 69.7227C29.8471 71.1045 30.6368 72.9809 32.4927 74.0483C33.4657 74.6077 34.1507 74.7697 35.3516 74.7242C36.1962 74.6921 36.6467 74.5954 37.3008 74.3059Z" fill="#010101"/>
</g>
<defs>
<clipPath id="clip0_32_4912">
<rect width="120" height="45" fill="white" transform="translate(0 39.5)"/>
</clipPath>
</defs>
</svg>
